<svg xmlns="http://www.w3.org/2000/svg" xmlns:xlink="http://www.w3.org/1999/xlink" version="1.1" x="0px" y="0px" viewBox="0 0 100 125" enable-background="new 0 0 100 100" xml:space="preserve"><path d="M57.064,37.423l-6.56,18.214l-7.664-24.655l-7.138,18.61h-6.027v4h8.777l3.991-10.408l7.781,25.029l6.878-19.093  l1.644,4.472h8.796v-4h-6.005L57.064,37.423z M81.221,41.047v-5h-2.781v-6.546c0-4.86-3.736-8.859-8.487-9.287L65.622,5.5H31.597  l-4.329,14.714c-4.751,0.427-8.488,4.426-8.488,9.287v41.001c0,4.859,3.737,8.857,8.488,9.283L31.597,94.5h34.025l4.33-14.715  c4.751-0.426,8.487-4.424,8.487-9.283v-6.549h2.781v-5h-2.781V41.047H81.221z M73.439,70.502c0,2.385-1.941,4.326-4.328,4.326  H28.108c-2.387,0-4.329-1.941-4.329-4.326V29.501c0-2.387,1.942-4.329,4.329-4.329h41.003c2.387,0,4.328,1.942,4.328,4.329V70.502z"/><text x="0" y="115" fill="#000000" font-size="5px" font-weight="bold" font-family="'Helvetica Neue', Helvetica, Arial-Unicode, Arial, Sans-serif">Created by Sergey Demushkin</text><text x="0" y="120" fill="#000000" font-size="5px" font-weight="bold" font-family="'Helvetica Neue', Helvetica, Arial-Unicode, Arial, Sans-serif">from the Noun Project</text></svg>