<svg xmlns="http://www.w3.org/2000/svg" xmlns:xlink="http://www.w3.org/1999/xlink" version="1.1" x="0px" y="0px" viewBox="0 0 100 125" enable-background="new 0 0 100 100" xml:space="preserve"><path d="M20.416,13.852c0.65-0.514,1.594-0.403,2.107,0.247c0.514,0.65,0.403,1.593-0.247,2.107C17.652,19.86,15,25.332,15,31.219  c0,6.053,2.773,11.619,7.61,15.27c0.661,0.499,0.792,1.44,0.293,2.101c-0.295,0.391-0.744,0.596-1.198,0.596  c-0.315,0-0.632-0.099-0.903-0.303C15.208,44.66,12,38.221,12,31.219C12,24.409,15.067,18.079,20.416,13.852z"/><path d="M26.148,18.561c0.677-0.476,1.612-0.313,2.089,0.365c0.477,0.678,0.313,1.613-0.365,2.089  c-3.328,2.339-5.314,6.153-5.314,10.203c0,4.209,2.109,8.106,5.643,10.425c0.692,0.455,0.885,1.384,0.431,2.077  c-0.288,0.438-0.767,0.677-1.255,0.677c-0.282,0-0.568-0.08-0.822-0.246c-4.381-2.875-6.997-7.71-6.997-12.933  C19.558,26.193,22.021,21.461,26.148,18.561z"/><path d="M32.174,23.284c0.746-0.357,1.643-0.044,2.002,0.702c0.359,0.747,0.044,1.643-0.702,2.002  c-2.003,0.963-3.297,3.016-3.297,5.23c0,2.372,1.423,4.482,3.625,5.377c0.768,0.312,1.137,1.187,0.825,1.954  c-0.237,0.583-0.798,0.936-1.39,0.936c-0.188,0-0.379-0.036-0.564-0.111c-3.339-1.356-5.497-4.558-5.497-8.156  C27.177,27.858,29.139,24.744,32.174,23.284z"/><path d="M62.188,13.882c-0.78-0.002-1.412,0.628-1.414,1.408c-0.003,0.78,0.627,1.413,1.407,1.415  c0.782,0.002,1.414-0.627,1.417-1.407C63.598,14.518,62.968,13.884,62.188,13.882z"/><path d="M77.48,9H46.892c-4.071,0-7.382,3.312-7.382,7.382v68.235c0,4.071,3.312,7.382,7.382,7.382H77.48  c4.071,0,7.382-3.312,7.382-7.382V16.382C84.862,12.312,81.551,9,77.48,9z M81.862,84.618c0,2.417-1.966,4.382-4.382,4.382H46.892  c-2.417,0-4.382-1.966-4.382-4.382v-3.03h39.353V84.618z M81.862,78.588H42.509V22.412h39.353V78.588z M81.862,19.412H42.509v-3.029  c0-2.417,1.966-4.382,4.382-4.382H77.48c2.417,0,4.382,1.966,4.382,4.382V19.412z"/><path d="M57.48,86.794h9.412c0.829,0,1.5-0.671,1.5-1.5s-0.671-1.5-1.5-1.5H57.48c-0.829,0-1.5,0.671-1.5,1.5  S56.651,86.794,57.48,86.794z"/><g><path d="M75.165,60.94H49.207c-0.536,0-1.031-0.286-1.299-0.75c-0.268-0.464-0.268-1.036,0-1.5l12.979-22.48   c0.268-0.464,0.763-0.75,1.299-0.75c0.536,0,1.031,0.286,1.299,0.75l12.979,22.48c0.268,0.464,0.268,1.036,0,1.5   C76.196,60.654,75.701,60.94,75.165,60.94z M51.805,57.94h20.762L62.186,39.96L51.805,57.94z"/></g><g><g><path d="M62.189,53.292c-0.828-0.002-1.5,0.667-1.503,1.496c-0.003,0.829,0.666,1.502,1.494,1.504    c0.831,0.002,1.503-0.666,1.506-1.495C63.686,53.968,63.017,53.294,62.189,53.292z"/></g><g><path d="M62.186,52.108c-0.829,0-1.5-0.671-1.5-1.5v-4.5c0-0.829,0.671-1.5,1.5-1.5s1.5,0.671,1.5,1.5v4.5    C63.686,51.436,63.015,52.108,62.186,52.108z"/></g></g><text x="0" y="115" fill="#000000" font-size="5px" font-weight="bold" font-family="'Helvetica Neue', Helvetica, Arial-Unicode, Arial, Sans-serif">Created by Ilaria Vitali</text><text x="0" y="120" fill="#000000" font-size="5px" font-weight="bold" font-family="'Helvetica Neue', Helvetica, Arial-Unicode, Arial, Sans-serif">from the Noun Project</text></svg>