<svg xmlns="http://www.w3.org/2000/svg" xmlns:xlink="http://www.w3.org/1999/xlink" version="1.1" x="0px" y="0px" viewBox="0 0 90 112.5" style="enable-background:new 0 0 90 90;" xml:space="preserve"><style type="text/css">
	.st0{fill:#231F20;}
</style><path d="M72.3,40V25.2c0,0,0,0,0,0s0,0,0,0c0-0.6-0.4-1-1-1H56.5l-10.5-7c-0.3-0.2-0.8-0.2-1.1,0l-10.8,7.1  c-0.3,0.2-0.4,0.5-0.4,0.8s0.2,0.6,0.4,0.8l10.3,6.9v7.8H33.3c-0.6,0-1,0.4-1,1v9.1H24c-0.6,0-1,0.4-1,1v4.6h-9.7V42.7h7.3  c0.6,0,1-0.4,1-1V15.8c0-0.6-0.4-1-1-1H2.9c-0.6,0-1,0.4-1,1v25.9c0,0.6,0.4,1,1,1h8.5v14.7c0,0.6,0.4,1,1,1H23v4.5c0,0.6,0.4,1,1,1  h17.8c0.6,0,1-0.4,1-1v-4.3h10.6C54,67.7,61.6,75,70.9,75c9.6,0,17.5-7.9,17.5-17.5C88.4,48.3,81.3,40.8,72.3,40z M3.9,16.8h15.8  v23.9H3.9V16.8z M45.4,19.2l9,5.9L45.7,31c-0.1,0-0.2,0-0.2,0s-0.2,0-0.2,0l-8.7-5.8L45.4,19.2z M40.8,61.9H25v-9.1h15.8V61.9z   M41.8,50.8h-7.5v-8.1h11.2c0.6,0,1-0.4,1-1c0,0,0-0.1,0-0.1c0,0,0-0.1,0-0.1v-8.6l10.1-6.7h13.8V40c-9.1,0.3-16.4,7.6-16.9,16.6  H42.8v-4.9C42.8,51.2,42.4,50.8,41.8,50.8z M70.9,73c-8.5,0-15.5-7-15.5-15.5c0-8.5,7-15.5,15.5-15.5c8.5,0,15.5,7,15.5,15.5  C86.4,66,79.4,73,70.9,73z M76.9,52.5c0.4,0.3,0.5,1,0.2,1.4l-6.7,9c0,0,0,0,0,0c0,0,0,0,0,0.1c-0.1,0.1-0.1,0.1-0.2,0.1  c0,0-0.1,0.1-0.1,0.1c-0.1,0.1-0.3,0.1-0.4,0.1c0,0,0,0,0,0c0,0,0,0,0,0c-0.1,0-0.2,0-0.3-0.1c0,0-0.1,0-0.1-0.1  c-0.1,0-0.1,0-0.2-0.1c0,0,0,0,0,0c0,0,0,0-0.1,0l-4.2-4c-0.4-0.4-0.4-1,0-1.4c0.4-0.4,1-0.4,1.4,0l3.3,3.2l6-8.1  C75.8,52.2,76.5,52.1,76.9,52.5z"/><text x="0" y="105" fill="#000000" font-size="5px" font-weight="bold" font-family="'Helvetica Neue', Helvetica, Arial-Unicode, Arial, Sans-serif">Created by Sergey Novosyolov</text><text x="0" y="110" fill="#000000" font-size="5px" font-weight="bold" font-family="'Helvetica Neue', Helvetica, Arial-Unicode, Arial, Sans-serif">from the Noun Project</text></svg>