<svg xmlns="http://www.w3.org/2000/svg" xmlns:xlink="http://www.w3.org/1999/xlink" version="1.1" x="0px" y="0px" viewBox="0 0 52 65" enable-background="new 0 0 52 52" xml:space="preserve"><g><g><line fill="none" stroke="#000000" stroke-width="2" stroke-miterlimit="10" x1="38.9996872" y1="18.6457005" x2="38.9996872" y2="3"/><line fill="none" stroke="#000000" stroke-width="2" stroke-miterlimit="10" x1="38.9996872" y1="50" x2="38.9996872" y2="43"/><polyline fill="none" stroke="#000000" stroke-width="2" stroke-miterlimit="10" points="45.9996872,10 38.9996872,3     31.9996891,10   "/><g><path d="M43.2092743,33.1835175c0,0.8887444-0.3215103,1.6027069-0.9642029,2.1422119     c-0.6426964,0.5395012-1.5427284,0.8623009-2.6997757,0.9683952v1.7187996H38.396637v-1.6852608     c-1.3637543-0.0280571-2.5601425-0.2683029-3.5885201-0.7210579v-2.2134781     c0.4862938,0.240242,1.0719109,0.452755,1.7565308,0.6372108c0.6846161,0.1844559,1.2953873,0.2934532,1.8319893,0.326992     v-2.5991611l-0.5617561-0.2179928c-1.106739-0.4359894-1.8906784-0.9097061-2.3518219-1.421154     c-0.4611397-0.5114479-0.6917114-1.1444702-0.6917114-1.899065c0-0.8103828,0.317318-1.4769421,0.9516296-1.9996777     c0.6343117-0.5227337,1.5188637-0.8397274,2.6536598-0.9516277v-1.2828121h1.1486588v1.2492752     c1.279911,0.055788,2.4369545,0.3131237,3.471138,0.7713642l-0.7881317,1.9619465     c-0.8719788-0.357626-1.7662048-0.5756207-2.6830063-0.6539822v2.4733944     c1.0899696,0.41922,1.8655281,0.78265,2.3266678,1.0899715c0.4611435,0.3073196,0.7994194,0.6455975,1.0145111,1.0145111     S43.2092743,32.6917381,43.2092743,33.1835175z M37.3150482,28.2199574c0,0.2460499,0.0851326,0.4485645,0.2557259,0.6078682     c0.1705894,0.1593037,0.4456596,0.3227997,0.8258629,0.4904861v-1.9703312     C37.6755791,27.4540749,37.3150482,27.7449493,37.3150482,28.2199574z M40.6855736,33.3092804     c0-0.2347603-0.0951309-0.4330864-0.2850685-0.5952911s-0.4750099-0.3298912-0.8552094-0.5030632v2.0877151     C40.3053741,34.1699715,40.6855736,33.8404007,40.6855736,33.3092804z"/><circle fill="none" stroke="#000000" stroke-width="2" stroke-miterlimit="10" cx="39.0003128" cy="30.999382" r="10"/></g></g><g><line fill="none" stroke="#000000" stroke-width="2" stroke-miterlimit="10" x1="12.9990664" y1="33.3543015" x2="12.9990664" y2="49"/><line fill="none" stroke="#000000" stroke-width="2" stroke-miterlimit="10" x1="12.9990664" y1="2" x2="12.9990664" y2="9"/><polyline fill="none" stroke="#000000" stroke-width="2" stroke-miterlimit="10" points="19.9990673,42 12.9990664,49     5.9990664,42   "/><g><path d="M8.7907248,18.8164845c0-0.8887463,0.3215094-1.6027088,0.9642048-2.1422119     c0.6426964-0.5395031,1.5427284-0.8623028,2.6997738-0.9683971v-1.7187996h1.1486616v1.6852617     c1.3637533,0.0280561,2.5601406,0.268301,3.5885181,0.7210569v2.21348     c-0.4862938-0.2402458-1.0719109-0.4527569-1.7565289-0.6372147c-0.684618-0.1844559-1.2953882-0.2934532-1.8319893-0.3269901     v2.5991611l0.5617542,0.2179928c1.106739,0.4359894,1.8906803,0.9097061,2.3518219,1.421154     s0.6917114,1.1444702,0.6917114,1.899065c0,0.8103828-0.3173161,1.4769421-0.9516277,1.9996777     c-0.6343117,0.5227337-1.5188646,0.8397274-2.6536598,0.9516277v1.2828121h-1.1486616v-1.2492752     c-1.2799091-0.055788-2.4369545-0.3131237-3.471137-0.7713642l0.7881327-1.9619465     c0.8719759,0.357626,1.7662039,0.5756207,2.6830044,0.6539822V22.212162     c-1.0899706-0.41922-1.8655262-0.78265-2.3266678-1.0899715c-0.4611416-0.3073196-0.7994194-0.6455975-1.0145111-1.0145111     C8.8984327,19.7387676,8.7907248,19.30826,8.7907248,18.8164845z M14.6849508,23.7800426     c0-0.2460499-0.0851336-0.4485645-0.255724-0.6078682c-0.1705894-0.1593037-0.4456625-0.3227997-0.8258619-0.4904861v1.9703312     C14.3244228,24.5459251,14.6849508,24.2550507,14.6849508,23.7800426z M11.3144264,18.6907177     c0,0.2347641,0.0951309,0.4330864,0.2850695,0.595293c0.1899385,0.1622047,0.475008,0.3298931,0.8552074,0.5030632v-2.0877132     C11.6946259,17.8300285,11.3144264,18.1595993,11.3144264,18.6907177z"/><circle fill="none" stroke="#000000" stroke-width="2" stroke-miterlimit="10" cx="12.9996891" cy="21.000618" r="10"/></g></g></g><text x="0" y="67" fill="#000000" font-size="5px" font-weight="bold" font-family="'Helvetica Neue', Helvetica, Arial-Unicode, Arial, Sans-serif">Created by Dinosoft Labs</text><text x="0" y="72" fill="#000000" font-size="5px" font-weight="bold" font-family="'Helvetica Neue', Helvetica, Arial-Unicode, Arial, Sans-serif">from the Noun Project</text></svg>