<svg xmlns="http://www.w3.org/2000/svg" data-name="Layer 1" viewBox="0 0 100 125" x="0px" y="0px"><title>Artboard 32</title><path d="M85.83,8h-68a7.51,7.51,0,0,0-7.5,7.5v68a7.51,7.51,0,0,0,7.5,7.5h68a7.51,7.51,0,0,0,7.5-7.5v-68A7.51,7.51,0,0,0,85.83,8Zm4.5,75.5a4.5,4.5,0,0,1-4.5,4.5h-68a4.5,4.5,0,0,1-4.5-4.5v-68a4.5,4.5,0,0,1,4.5-4.5h68a4.5,4.5,0,0,1,4.5,4.5Z"/><path d="M79.83,80h-56a1.5,1.5,0,1,0,0,3h56a1.5,1.5,0,0,0,0-3Z"/><path d="M51.83,17c-12.44,0-23.08,4.06-30.76,11.74L20,29.8,33.18,43l1-.67a32,32,0,0,1,35.26,0l1,.67L83.65,29.8l-1.06-1.06C74.91,21.06,64.27,17,51.83,17ZM70.08,39.14a34.78,34.78,0,0,0-24.76-4.51l-6.65-8.08a1.5,1.5,0,0,0-2.32,1.91l5.72,6.95a35,35,0,0,0-8.47,3.74l-9.31-9.31c7-6.43,16.51-9.82,27.55-9.82s20.54,3.39,27.55,9.82Z"/><text x="0" y="115" fill="#000000" font-size="5px" font-weight="bold" font-family="'Helvetica Neue', Helvetica, Arial-Unicode, Arial, Sans-serif">Created by Bernar  Novalyi</text><text x="0" y="120" fill="#000000" font-size="5px" font-weight="bold" font-family="'Helvetica Neue', Helvetica, Arial-Unicode, Arial, Sans-serif">from the Noun Project</text></svg>