<svg xmlns="http://www.w3.org/2000/svg" viewBox="0 0 64 80" x="0px" y="0px"><title>Cloud-cloud computing-cloud links-data-data cloud</title><g data-name="Layer 4"><path d="M35,41a1,1,0,0,0-1-1H30a1,1,0,0,0,0,2h4A1,1,0,0,0,35,41Z"/><path d="M54.89,28a7.15,7.15,0,0,0-2.15.33,12.08,12.08,0,0,0,.1-1.58,14,14,0,0,0-27-5A8.63,8.63,0,0,0,12.68,29,7,7,0,1,0,9.11,42H15a1,1,0,0,0,0-2H9.11a5,5,0,1,1,0-10,5.11,5.11,0,0,1,4.29,2.32,1,1,0,0,0,1.76-.93A6.45,6.45,0,0,1,14.68,29a6.58,6.58,0,0,1,6.64-6.5,6.67,6.67,0,0,1,4.38,1.66,1,1,0,0,0,1.62-.48,12,12,0,0,1,23.52,3.07,11.53,11.53,0,0,1-.43,3.1,1,1,0,0,0,1.53,1.08,5.16,5.16,0,0,1,3-.93,5,5,0,1,1,0,10H48a1,1,0,0,0,0,2h6.89a7,7,0,1,0,0-14Z"/><path d="M47,45H45V30a1,1,0,0,0-1-1H38a1,1,0,0,0-1,1V45H35a1,1,0,0,0-.92.62,1,1,0,0,0,.21,1.09l6,6a1,1,0,0,0,1.42,0l6-6a1,1,0,0,0,.21-1.09A1,1,0,0,0,47,45Zm-6,5.59L37.41,47H38a1,1,0,0,0,1-1V31h4V46a1,1,0,0,0,1,1h.59Z"/><path d="M29.92,36.38a1,1,0,0,0-.21-1.09l-6-6a1,1,0,0,0-1.42,0l-6,6a1,1,0,0,0-.21,1.09A1,1,0,0,0,17,37h2V52a1,1,0,0,0,1,1h6a1,1,0,0,0,1-1V37h2A1,1,0,0,0,29.92,36.38ZM26,35a1,1,0,0,0-1,1V51H21V36a1,1,0,0,0-1-1h-.59L23,31.41,26.59,35Z"/></g><text x="0" y="79" fill="#000000" font-size="5px" font-weight="bold" font-family="'Helvetica Neue', Helvetica, Arial-Unicode, Arial, Sans-serif">Created by Pause08</text><text x="0" y="84" fill="#000000" font-size="5px" font-weight="bold" font-family="'Helvetica Neue', Helvetica, Arial-Unicode, Arial, Sans-serif">from the Noun Project</text></svg>