<svg xmlns="http://www.w3.org/2000/svg" xmlns:xlink="http://www.w3.org/1999/xlink" version="1.1" x="0px" y="0px" viewBox="0 0 65 81.25" enable-background="new 0 0 65 65" xml:space="preserve"><g><path d="M32.1,8.9c2.3,0,4.2-1.9,4.2-4.2s-1.9-4.2-4.2-4.2c-2.3,0-4.2,1.9-4.2,4.2S29.8,8.9,32.1,8.9z M32.1,2   c1.5,0,2.7,1.2,2.7,2.7s-1.2,2.7-2.7,2.7c-1.5,0-2.7-1.2-2.7-2.7S30.6,2,32.1,2z"/><path d="M41,13.8c0-0.7-0.2-1.5-0.6-2.2c-0.4-0.8-1.2-1.4-2-1.7l-3.2-1.1l-2.6,4.9H32l-2.6-4.9l-3.2,1.1c-0.9,0.3-1.6,0.9-2,1.7   c-0.4,0.7-0.6,1.5-0.6,2.1c0,0-0.3,2.7-0.4,5.3l0,0.8h18.3l0-0.8C41.2,16.5,41,13.8,41,13.8z M38.2,18.3l-0.2-2.6l-1.5,0.1l0.2,2.5   h-9l0.2-2.5l-1.5-0.1l-0.2,2.6h-1.6c0.1-2.3,0.4-4.4,0.4-4.5c0-0.6,0.2-1.1,0.5-1.5c0.3-0.5,0.7-0.8,1.2-1l1.9-0.7l2.4,4.6h2.3   l2.4-4.6l1.9,0.7c0.5,0.2,1,0.6,1.2,1c0.2,0.4,0.4,0.9,0.5,1.6c0,0,0.2,2.1,0.4,4.4H38.2z"/><path d="M36.3,49.4c0-2.3-1.9-4.2-4.2-4.2c-2.3,0-4.2,1.9-4.2,4.2c0,2.3,1.9,4.2,4.2,4.2C34.4,53.6,36.3,51.7,36.3,49.4z    M29.4,49.4c0-1.5,1.2-2.7,2.7-2.7c1.5,0,2.7,1.2,2.7,2.7s-1.2,2.7-2.7,2.7C30.6,52.1,29.4,50.9,29.4,49.4z"/><path d="M41,58.6c0-0.7-0.2-1.5-0.6-2.2c-0.4-0.8-1.2-1.4-2-1.7l-3.2-1.1l-2.6,4.9H32l-2.6-4.9l-3.2,1.1c-0.9,0.3-1.6,0.9-2,1.7   c-0.4,0.7-0.6,1.5-0.6,2.1c0,0-0.3,2.7-0.4,5.3l0,0.8h18.3l0-0.8C41.2,61.2,41,58.6,41,58.6z M38.2,63l-0.2-2.6l-1.5,0.1l0.2,2.5   h-9l0.2-2.5l-1.5-0.1L26.3,63h-1.6c0.1-2.3,0.4-4.4,0.4-4.5c0-0.6,0.2-1.1,0.5-1.5c0.3-0.5,0.7-0.8,1.2-1l1.9-0.7l2.4,4.6h2.3   l2.4-4.6l1.9,0.7c0.5,0.2,1,0.6,1.2,1c0.2,0.4,0.4,0.9,0.5,1.6c0,0,0.2,2.1,0.4,4.4H38.2z"/><path d="M51.8,28.7c0,2.3,1.9,4.2,4.2,4.2c2.3,0,4.2-1.9,4.2-4.2c0-2.3-1.9-4.2-4.2-4.2C53.7,24.5,51.8,26.4,51.8,28.7z M56,26   c1.5,0,2.7,1.2,2.7,2.7c0,1.5-1.2,2.7-2.7,2.7c-1.5,0-2.7-1.2-2.7-2.7C53.3,27.2,54.5,26,56,26z"/><path d="M56.4,37.7h-0.5l-2.6-4.9L50.1,34c-0.9,0.3-1.6,0.9-2,1.7c-0.4,0.7-0.6,1.5-0.6,2.1c0,0-0.3,2.7-0.4,5.3l0,0.8h18.3l0-0.8   c-0.1-2.6-0.4-5.2-0.4-5.2c0-0.7-0.2-1.5-0.6-2.2c-0.4-0.8-1.2-1.4-2-1.7L59,32.8L56.4,37.7z M61.7,35.4c0.5,0.2,1,0.6,1.2,1   c0.2,0.4,0.4,0.9,0.5,1.6c0,0,0.2,2.1,0.4,4.4h-1.6L62,39.8l-1.5,0.1l0.2,2.5h-9l0.2-2.5l-1.5-0.1l-0.2,2.6h-1.6   c0.1-2.3,0.4-4.4,0.4-4.5c0-0.6,0.2-1.1,0.5-1.5c0.3-0.5,0.7-0.8,1.2-1l1.9-0.7l2.4,4.6h2.3l2.4-4.6L61.7,35.4z"/><path d="M8.7,32.9c2.3,0,4.2-1.9,4.2-4.2c0-2.3-1.9-4.2-4.2-4.2c-2.3,0-4.2,1.9-4.2,4.2C4.5,31.1,6.4,32.9,8.7,32.9z M8.7,26   c1.5,0,2.7,1.2,2.7,2.7c0,1.5-1.2,2.7-2.7,2.7S6,30.2,6,28.7C6,27.2,7.2,26,8.7,26z"/><path d="M18,43.1c-0.1-2.6-0.4-5.2-0.4-5.2c0-0.7-0.2-1.5-0.6-2.2c-0.4-0.8-1.2-1.4-2-1.7l-3.2-1.1l-2.6,4.9H8.6L6,32.8L2.8,34   c-0.9,0.3-1.6,0.9-2,1.7c-0.4,0.7-0.6,1.5-0.6,2.1c0,0-0.3,2.7-0.4,5.3l0,0.8H18L18,43.1z M14.9,42.4l-0.2-2.6l-1.5,0.1l0.2,2.5h-9   l0.2-2.5L3,39.8l-0.2,2.6H1.3c0.1-2.3,0.4-4.4,0.4-4.5c0-0.6,0.2-1.1,0.5-1.5c0.3-0.5,0.7-0.8,1.2-1l1.9-0.7l2.4,4.6H10l2.4-4.6   l1.9,0.7c0.5,0.2,1,0.6,1.2,1c0.2,0.4,0.4,0.9,0.5,1.6c0,0,0.2,2.1,0.4,4.4H14.9z"/><path d="M11.4,45l-1.3,0.7c1.2,2.3,2.7,4.3,4.5,6.2c1.8,1.8,3.9,3.3,6.2,4.5l0.7-1.3c-2.1-1.1-4.1-2.5-5.8-4.2   C13.9,49.1,12.5,47.1,11.4,45z"/><path d="M48.8,50.8c-1.7,1.7-3.7,3.1-5.8,4.2l0.7,1.3c2.3-1.2,4.3-2.7,6.2-4.5c1.8-1.8,3.3-3.9,4.5-6.2L53.1,45   C52,47.1,50.5,49.1,48.8,50.8z"/><path d="M53.1,23.4l1.3-0.7c-1.2-2.3-2.7-4.3-4.5-6.2c-1.8-1.8-3.9-3.3-6.2-4.5L43,13.3c2.1,1.1,4.1,2.5,5.8,4.2   C50.5,19.3,52,21.2,53.1,23.4z"/><path d="M14.6,16.5c-1.8,1.8-3.3,3.9-4.5,6.2l1.3,0.7c1.1-2.1,2.5-4.1,4.2-5.8c1.7-1.7,3.7-3.1,5.8-4.2L20.8,12   C18.5,13.2,16.4,14.7,14.6,16.5z"/></g><text x="0" y="80" fill="#000000" font-size="5px" font-weight="bold" font-family="'Helvetica Neue', Helvetica, Arial-Unicode, Arial, Sans-serif">Created by Creative Stall</text><text x="0" y="85" fill="#000000" font-size="5px" font-weight="bold" font-family="'Helvetica Neue', Helvetica, Arial-Unicode, Arial, Sans-serif">from the Noun Project</text></svg>