<svg xmlns="http://www.w3.org/2000/svg" xmlns:xlink="http://www.w3.org/1999/xlink" version="1.1" x="0px" y="0px" viewBox="0 0 48 60" enable-background="new 0 0 48 48" xml:space="preserve"><g><path d="M23.9,21.2L27,7.5c0.1-0.3,0-0.6-0.2-0.8c-0.2-0.2-0.5-0.4-0.8-0.4h-2.1V4.1c0-0.6-0.4-1-1-1H10.7l-2-2.7   C8.4,0.1,8.1,0,7.8,0H1C0.5,0,0,0.4,0,1l0,20c0.2,0.7,0.5,1,1,1c0,0,0,0,0,0h21.9C23.4,22,23.8,21.7,23.9,21.2z M2,2h5.3l2,2.7   C9.5,5,9.8,5.1,10.2,5.1h11.8v1.1H4.1c-0.5,0-0.9,0.3-1,0.8L2,12.1L2,2z M2.3,20L4.9,8.3h18c0,0,0,0,0,0s0,0,0,0h1.9L22.1,20H2.3z"/><path d="M47,32.3h-2.1v-2.1c0-0.6-0.4-1-1-1H31.6l-2-2.7c-0.2-0.3-0.5-0.4-0.8-0.4H22c-0.6,0-1,0.4-1,1l0,20c0.1,0.6,0.3,0.9,1,1   c0,0,0,0,0,0h21.9c0.5,0,0.9-0.3,1-0.8L48,33.5C48,32.7,47.7,32.3,47,32.3z M23,28h5.3l2,2.7c0.2,0.3,0.5,0.4,0.8,0.4h11.8v1.1   H25.1c-0.5,0-0.9,0.3-1,0.8L23,38.1L23,28z M43.1,46H23.2l2.7-11.7h19.8L43.1,46z"/><path d="M17.9,38.9l-4.5-6c-0.3-0.4-1-0.5-1.4-0.2c-0.4,0.3-0.5,1-0.2,1.4l3.2,4.2c-6-1-10.5-6.2-10.5-12.5c0-0.6-0.4-1-1-1   s-1,0.4-1,1c0,7.2,5.2,13.1,12,14.4l-4,3c-0.4,0.3-0.5,1-0.2,1.4c0.2,0.3,0.5,0.4,0.8,0.4c0.2,0,0.4-0.1,0.6-0.2l6-4.5   C18.1,40,18.2,39.5,17.9,38.9C17.9,39,17.9,39,17.9,38.9z"/><path d="M33.9,14.5c0.2,0.3,0.5,0.4,0.8,0.4c0.2,0,0.4-0.1,0.6-0.2c0.4-0.3,0.5-1,0.2-1.4L32.4,9c6,1,10.5,6.2,10.5,12.5   c0,0.6,0.4,1,1,1s1-0.4,1-1c0-7.2-5.2-13.2-12-14.4l4-3c0.4-0.3,0.5-1,0.2-1.4c-0.3-0.4-1-0.5-1.4-0.2l-6,4.5   c-0.4,0.3-0.5,0.8-0.2,1.4L33.9,14.5z"/></g><text x="0" y="63" fill="#000000" font-size="5px" font-weight="bold" font-family="'Helvetica Neue', Helvetica, Arial-Unicode, Arial, Sans-serif">Created by Vectors Market</text><text x="0" y="68" fill="#000000" font-size="5px" font-weight="bold" font-family="'Helvetica Neue', Helvetica, Arial-Unicode, Arial, Sans-serif">from the Noun Project</text></svg>