<svg xmlns="http://www.w3.org/2000/svg" xmlns:xlink="http://www.w3.org/1999/xlink" xml:space="preserve" version="1.1" style="shape-rendering:geometricPrecision;text-rendering:geometricPrecision;image-rendering:optimizeQuality;" viewBox="0 0 582068 725856.25" x="0px" y="0px" fill-rule="evenodd" clip-rule="evenodd"><defs><style type="text/css">
   
    .fil0 {fill:black}
   
  </style></defs><g><path class="fil0" d="M582068 580684c0,0 0,-25484 -3025,-49022 -3027,-23536 -48498,-33007 -65468,-39616 -5467,-2120 -8395,-5476 -9960,-8406 -7850,7159 -17313,12314 -28340,11749 -10905,560 -20283,-4478 -28080,-11514 -1481,2779 -4419,5918 -10218,8171 -16973,6609 -62436,16080 -65470,39616 -3027,23538 -3027,49022 -3027,49022l29533 0 0 -6660c0,-2528 2068,-4597 4598,-4597l3 0c2530,0 4597,2069 4597,4597l0 6660 136123 0 0 -6660c0,-2528 2069,-4597 4599,-4597l3 0c2528,0 4597,2069 4597,4597l0 6660 29535 0zm-309200 -295024l36332 0 0 59140 59143 0 0 36333 -59143 0 0 59142 -36332 0 0 -59142 -59140 0 0 -36333 59140 0 0 -59140zm18164 -51539c71165,0 128850,57687 128850,128850 0,71165 -57685,128847 -128850,128847 -71161,0 -128846,-57682 -128846,-128847 0,-71163 57685,-128850 128846,-128850zm0 19821c60214,0 109029,48817 109029,109029 0,60215 -48815,109030 -109029,109030 -60212,0 -109026,-48815 -109026,-109030 0,-60212 48814,-109029 109026,-109029zm-77441 326743c0,0 0,-25484 -3027,-49022 -3028,-23535 -48499,-33006 -65469,-39615 -5468,-2122 -8395,-5476 -9960,-8408 -7847,7160 -17312,12316 -28339,11749 -10905,562 -20282,-4477 -28079,-11510 -1482,2777 -4420,5914 -10220,8169 -16971,6609 -62438,16080 -65470,39615 -3027,23538 -3027,49022 -3027,49022l29533 0 0 -6659c0,-2529 2071,-4598 4598,-4598l5 0c2528,0 4597,2069 4597,4598l0 6659 136122 0 0 -6659c0,-2529 2069,-4598 4598,-4598l4 0c2527,0 4598,2069 4598,4598l0 6659 29536 0zm32840 -535022c0,21010 3926,32721 16395,52974 9746,12493 19068,18172 28208,17420 9140,752 18460,-4927 28208,-17420 12469,-20253 16395,-31964 16395,-52974 0,-60904 -89201,-60862 -89206,0zm151398 167925c0,0 0,-25484 -3027,-49024 -3027,-23535 -48497,-33006 -65468,-39615 -5470,-2120 -8395,-5475 -9960,-8405 -7850,7157 -17313,12314 -28340,11748 -10905,561 -20284,-4479 -28080,-11514 -1481,2780 -4419,5919 -10220,8171 -16971,6609 -62437,16080 -65468,39615 -3027,23540 -3027,49024 -3027,49024l29533 0 0 -6661c0,-2530 2069,-4598 4598,-4598l3 0c2530,0 4597,2068 4597,4598l0 6661 136124 0 0 -6661c0,-2530 2068,-4598 4598,-4598l3 0c2528,0 4597,2068 4597,4598l0 6661 29537 0zm-335637 199170c0,21014 3926,32725 16395,52978 9748,12494 19067,18172 28209,17420 9141,752 18461,-4926 28209,-17420 12467,-20253 16392,-31964 16392,-52978 0,-60901 -89200,-60860 -89205,0zm368482 0c0,21012 3924,32724 16393,52976 9748,12494 19067,18173 28208,17420 9142,753 18462,-4926 28208,-17420 12470,-20252 16395,-31964 16395,-52976 0,-60901 -89201,-60862 -89204,0z"/></g><text x="0" y="580700" fill="#000000" font-size="5px" font-weight="bold" font-family="'Helvetica Neue', Helvetica, Arial-Unicode, Arial, Sans-serif">Created by popcornarts</text><text x="0" y="580705" fill="#000000" font-size="5px" font-weight="bold" font-family="'Helvetica Neue', Helvetica, Arial-Unicode, Arial, Sans-serif">from the Noun Project</text></svg>