<svg xmlns:dc="http://purl.org/dc/elements/1.1/" xmlns:cc="http://creativecommons.org/ns#" xmlns:rdf="http://www.w3.org/1999/02/22-rdf-syntax-ns#" xmlns:svg="http://www.w3.org/2000/svg" xmlns="http://www.w3.org/2000/svg" xmlns:sodipodi="http://sodipodi.sourceforge.net/DTD/sodipodi-0.dtd" xmlns:inkscape="http://www.inkscape.org/namespaces/inkscape" version="1.1" x="0px" y="0px" viewBox="0 0 100 125"><g transform="translate(0,-952.36218)"><path style="text-indent:0;text-transform:none;direction:ltr;block-progression:tb;baseline-shift:baseline;color:#000000;enable-background:accumulate;" d="m 37,979.36217 c -2.7354,0 -5,2.26458 -5,5 l 0,36.00003 c 0,2.7354 2.2646,5 5,5 l 54,0 c 2.7355,0 5,-2.2646 5,-5 l 0,-36.00003 c 0,-2.73542 -2.2645,-5 -5,-5 l -54,0 z m 0,4 54,0 c 0.5887,0 1,0.4114 1,1 l 0,36.00003 c 0,0.5886 -0.4113,1 -1,1 l -54,0 c -0.5886,0 -1,-0.4114 -1,-1 l 0,-36.00003 c 0,-0.5886 0.4114,-1 1,-1 z m -31,5 c -1.1046,0 -2,0.8954 -2,2 0,1.1046 0.8954,2 2,2 l 20,0 c 1.1047,0 2,-0.8954 2,-2 0,-1.1046 -0.8953,-2 -2,-2 l -20,0 z m 38.7813,0.96875 a 2.0002,2.0002 0 0 0 -1.1875,3.4375 l 10.0625,9.99998 -10,9.0938 a 2.0022906,2.0022906 0 1 0 2.6875,2.9687 l 10.1562,-9.25 3.0313,3 c 2.4516,2.4324 6.4537,2.4267 8.9063,0 l 3.0312,-3 10.1875,9.25 a 2.0022906,2.0022906 0 1 0 2.6875,-2.9687 l -10.0312,-9.125 10.0937,-9.96878 a 2.0002,2.0002 0 1 0 -2.8125,-2.84375 l -16,15.81253 c -0.7377,0.7297 -2.5165,0.728 -3.25,0 L 46.4063,989.92467 a 2.0002,2.0002 0 0 0 -1.625,-0.59375 z M 10,1000.3622 c -1.1046,0 -2,0.8954 -2,2 0,1.1046 0.8954,2 2,2 l 16,0 c 1.1047,0 2,-0.8954 2,-2 0,-1.1046 -0.8953,-2 -2,-2 l -16,0 z m 4,12 c -1.1046,0 -2,0.8954 -2,2 0,1.1046 0.8954,2 2,2 l 12,0 c 1.1047,0 2,-0.8954 2,-2 0,-1.1046 -0.8953,-2 -2,-2 l -12,0 z" fill="#000000" fill-opacity="1" fill-rule="nonzero" stroke="none" marker="none" visibility="visible" display="inline" overflow="visible"/></g><text x="0" y="115" fill="#000000" font-size="5px" font-weight="bold" font-family="'Helvetica Neue', Helvetica, Arial-Unicode, Arial, Sans-serif">Created by Numero Uno</text><text x="0" y="120" fill="#000000" font-size="5px" font-weight="bold" font-family="'Helvetica Neue', Helvetica, Arial-Unicode, Arial, Sans-serif">from the Noun Project</text></svg>