<svg xmlns="http://www.w3.org/2000/svg" xmlns:xlink="http://www.w3.org/1999/xlink" version="1.1" x="0px" y="0px" viewBox="0 0 100 125" enable-background="new 0 0 100 100" xml:space="preserve"><path d="M81.91,27.056c2.817-2.647,4.59-6.394,4.59-10.556C86.5,8.505,79.995,2,72,2S57.5,8.505,57.5,16.5  c0,4.162,1.772,7.909,4.59,10.556C58.106,27.509,55,30.897,55,35v0.907C53.438,35.331,51.759,35,50,35  c-2.909,0-5.616,0.87-7.89,2.351c-1.196-2.322-3.493-3.987-6.2-4.295c2.817-2.647,4.59-6.394,4.59-10.556C40.5,14.505,33.995,8,26,8  s-14.5,6.505-14.5,14.5c0,4.162,1.772,7.909,4.59,10.556C12.106,33.509,9,36.897,9,41v47c0,1.104,0.896,2,2,2s2-0.896,2-2V41  c0-2.206,1.794-4,4-4h18c1.923,0,3.531,1.364,3.912,3.175C36.787,42.698,35.5,45.95,35.5,49.5c0,4.162,1.772,7.909,4.59,10.556  C36.106,60.509,33,63.897,33,68v27c0,1.104,0.896,2,2,2s2-0.896,2-2V68c0-2.206,1.794-4,4-4h18c2.206,0,4,1.794,4,4v27  c0,1.104,0.896,2,2,2s2-0.896,2-2V68c0-4.103-3.106-7.491-7.09-7.944c2.817-2.647,4.59-6.394,4.59-10.556  c0-4.601-2.161-8.7-5.515-11.358C58.989,38.094,59,38.048,59,38v-3c0-2.206,1.794-4,4-4h18c2.206,0,4,1.794,4,4v47  c0,1.104,0.896,2,2,2s2-0.896,2-2V35C89,30.897,85.894,27.509,81.91,27.056z M15.5,22.5C15.5,16.71,20.21,12,26,12  s10.5,4.71,10.5,10.5S31.79,33,26,33S15.5,28.29,15.5,22.5z M60.5,49.5C60.5,55.29,55.79,60,50,60s-10.5-4.71-10.5-10.5  c0-2.579,0.938-4.941,2.487-6.771c0.339-0.194,0.613-0.482,0.791-0.832C44.662,40.107,47.201,39,50,39  C55.79,39,60.5,43.71,60.5,49.5z M61.5,16.5C61.5,10.71,66.21,6,72,6s10.5,4.71,10.5,10.5S77.79,27,72,27S61.5,22.29,61.5,16.5z"/><text x="0" y="115" fill="#000000" font-size="5px" font-weight="bold" font-family="'Helvetica Neue', Helvetica, Arial-Unicode, Arial, Sans-serif">Created by DewDrops</text><text x="0" y="120" fill="#000000" font-size="5px" font-weight="bold" font-family="'Helvetica Neue', Helvetica, Arial-Unicode, Arial, Sans-serif">from the Noun Project</text></svg>