<svg xmlns="http://www.w3.org/2000/svg" xmlns:xlink="http://www.w3.org/1999/xlink" version="1.1" x="0px" y="0px" viewBox="0 0 100 125" enable-background="new 0 0 100 100" xml:space="preserve"><g><path d="M93.8,42.6H81.2c-2,0-3.7,1.7-3.7,3.8v1.1v26v0.7c0,2.1,1.7,3.8,3.7,3.8h12.6c2,0,3.7-1.7,3.7-3.8v-0.7v-7.1V49.7v-2.1   v-1.1C97.5,44.3,95.9,42.6,93.8,42.6z M89.1,76.4h-3.6c-0.5,0-1-0.4-1-1s0.4-1,1-1h3.6c0.5,0,1,0.4,1,1S89.7,76.4,89.1,76.4z    M94.7,72.8C94.7,72.8,94.6,72.8,94.7,72.8l-14.2,0c0,0-0.1,0-0.1,0V47.8c0,0,0.1,0,0.1,0h14.2c0,0,0,0,0.1,0V72.8z M81.9,29.7   c-0.5-0.2-1-0.3-1.5-0.3l-12.9,0l-12.9,0c-0.5,0-1,0.1-1.5,0.3c-1.4,0.6-2.3,2-2.3,3.6V34v35.3l0,4.8c0,2.2,1.7,3.9,3.8,3.9l6.7,0   c0,0,0,0,0,0l6.2,0l6.2,0c0,0,0,0,0,0l2.2,0c-0.7-1.1-1.2-2.4-1.2-3.8v-2.3h-2.7H54.5c0,0-0.1,0-0.1,0V34.7c0,0,0,0,0,0   c0,0,0.1,0,0.1,0h26.1c0,0,0.1,0,0.1,0v5c0.2,0,0.4,0,0.6,0h2.9v-5.8l0,0v-0.6C84.2,31.7,83.2,30.3,81.9,29.7z M64.9,74.4   c0-0.1,0.1-0.1,0.1-0.2c0.2-0.2,0.4-0.3,0.7-0.3h3.7c0.4,0,0.7,0.2,0.9,0.5c0.1,0.1,0.1,0.3,0.1,0.5s0,0.3-0.1,0.5   c-0.2,0.3-0.5,0.5-0.9,0.5h-3.7c-0.5,0-1-0.5-1-1C64.7,74.8,64.8,74.6,64.9,74.4z M63,26.4v0.3l-1.8,0h-54v33h40.9l0,9.4h-8.6   c0,0.9,0.5,4.8,6.4,5.6h-0.3c0.9,0,1.7,0.8,1.7,1.7c0,0.9-0.8,1.7-1.7,1.7H19.8c-0.9,0-1.7-0.8-1.7-1.7c0-0.9,0.8-1.7,1.7-1.7h-0.2   c5.9-0.7,6.4-4.7,6.4-5.6H6.4c-2.1,0-3.8-1.7-3.9-3.7h0v-0.1c0,0,0,0,0-0.1v-0.3c0,0,0,0,0-0.1v-5.9c0,0,0,0,0-0.1V26.4   c0-2.4,2-4.4,4.4-4.4h51.7C61.1,22,63,24,63,26.4z"/></g><text x="0" y="115" fill="#000000" font-size="5px" font-weight="bold" font-family="'Helvetica Neue', Helvetica, Arial-Unicode, Arial, Sans-serif">Created by Gregor Cresnar</text><text x="0" y="120" fill="#000000" font-size="5px" font-weight="bold" font-family="'Helvetica Neue', Helvetica, Arial-Unicode, Arial, Sans-serif">from the Noun Project</text></svg>