<svg xmlns:dc="http://purl.org/dc/elements/1.1/" xmlns:cc="http://creativecommons.org/ns#" xmlns:rdf="http://www.w3.org/1999/02/22-rdf-syntax-ns#" xmlns:svg="http://www.w3.org/2000/svg" xmlns="http://www.w3.org/2000/svg" xmlns:sodipodi="http://sodipodi.sourceforge.net/DTD/sodipodi-0.dtd" xmlns:inkscape="http://www.inkscape.org/namespaces/inkscape" viewBox="0 0 26.458333 33.0729175" version="1.1" x="0px" y="0px"><g transform="translate(0,-270.54165)"><circle style="opacity:0.95899999;vector-effect:none;fill:none;fill-opacity:1;fill-rule:evenodd;stroke:#000000;stroke-width:1;stroke-linecap:butt;stroke-linejoin:miter;stroke-miterlimit:4;stroke-dasharray:none;stroke-dashoffset:0;stroke-opacity:1;paint-order:normal" cx="8.598958" cy="283.10934" r="3.3072915"/><path style="" d="m 7.9375,279.53749 0.2645833,-1.05834 h 0.79375 l 0.2645834,1.05834 H 7.9375" fill="#000000" fill-opacity="1" stroke="#000000" stroke-width="0.26458332px" stroke-linecap="round" stroke-linejoin="round" stroke-opacity="1"/><path style="" d="m 7.9375,286.68123 0.2645833,1.05834 h 0.7937502 l 0.264583,-1.05834 H 7.9375" fill="#000000" fill-opacity="1" stroke="#000000" stroke-width="0.26458332px" stroke-linecap="round" stroke-linejoin="round" stroke-opacity="1"/><path style="" d="m 12.170833,283.77082 1.05834,-0.26459 v -0.79374 l -1.05834,-0.26459 v 1.32292" fill="#000000" fill-opacity="1" stroke="#000000" stroke-width="0.26458332px" stroke-linecap="round" stroke-linejoin="round" stroke-opacity="1"/><path style="" d="m 5.02709,283.77081 -1.05834,-0.26459 v -0.79374 l 1.05834,-0.26459 v 1.32292" fill="#000000" fill-opacity="1" stroke="#000000" stroke-width="0.26458332px" stroke-linecap="round" stroke-linejoin="round" stroke-opacity="1"/><path style="" d="M 5.4145567,281.26667 4.8532859,280.33122 5.4145519,279.76996 6.35,280.33123 5.4145567,281.26667" fill="#000000" fill-opacity="1" stroke="#000000" stroke-width="0.26458332px" stroke-linecap="round" stroke-linejoin="round" stroke-opacity="1"/><path style="" d="m 5.8208381,285.44911 -0.5612708,0.93545 0.561266,0.56126 0.9354482,-0.56127 -0.9354434,-0.93544" fill="#000000" fill-opacity="1" stroke="#000000" stroke-width="0.26458332px" stroke-linecap="round" stroke-linejoin="round" stroke-opacity="1"/><path style="" d="m 11.641662,285.18452 0.561271,0.93545 -0.561266,0.56126 -0.935449,-0.56127 0.935444,-0.93544" fill="#000000" fill-opacity="1" stroke="#000000" stroke-width="0.26458332px" stroke-linecap="round" stroke-linejoin="round" stroke-opacity="1"/><path style="" d="m 11.609562,281.0021 0.561271,-0.93545 -0.561266,-0.56126 -0.935449,0.56127 0.935444,0.93544" fill="#000000" fill-opacity="1" stroke="#000000" stroke-width="0.26458332px" stroke-linecap="round" stroke-linejoin="round" stroke-opacity="1"/><circle style="opacity:0.95899999;vector-effect:none;fill:none;fill-opacity:1;fill-rule:evenodd;stroke:#000000;stroke-width:1;stroke-linecap:butt;stroke-linejoin:miter;stroke-miterlimit:4;stroke-dasharray:none;stroke-dashoffset:0;stroke-opacity:1;paint-order:normal" cx="-46.18008" cy="286.89072" r="3.3072917" transform="rotate(-12)"/><path style="" d="m 13.087374,286.86662 0.03876,-1.09022 0.776407,-0.165 0.478842,0.9802 -1.294003,0.27508" fill="#000000" fill-opacity="1" stroke="#000000" stroke-width="0.26458332px" stroke-linecap="round" stroke-linejoin="round" stroke-opacity="1"/><path style="" d="m 14.572642,293.85425 0.478843,0.9802 0.776407,-0.165 0.03876,-1.09022 -1.294004,0.27508" fill="#000000" fill-opacity="1" stroke="#000000" stroke-width="0.26458332px" stroke-linecap="round" stroke-linejoin="round" stroke-opacity="1"/><path style="" d="m 18.108353,290.12728 0.980203,-0.47884 -0.165026,-0.7764 -1.090226,-0.0388 0.275052,1.29401" fill="#000000" fill-opacity="1" stroke="#000000" stroke-width="0.26458332px" stroke-linecap="round" stroke-linejoin="round" stroke-opacity="1"/><path style="" d="m 11.12072,291.61254 -1.090223,-0.0388 -0.1650254,-0.77639 0.9802014,-0.47885 0.275051,1.29401" fill="#000000" fill-opacity="1" stroke="#000000" stroke-width="0.26458332px" stroke-linecap="round" stroke-linejoin="round" stroke-opacity="1"/><path style="" d="m 10.979081,289.08257 -0.743498,-0.79832 0.432308,-0.66569 1.031703,0.35452 -0.720513,1.10949" fill="#000000" fill-opacity="1" stroke="#000000" stroke-width="0.26458332px" stroke-linecap="round" stroke-linejoin="round" stroke-opacity="1"/><path style="" d="m 12.246061,293.08914 -0.354513,1.0317 0.665694,0.4323 0.79831,-0.7435 -1.109491,-0.7205" fill="#000000" fill-opacity="1" stroke="#000000" stroke-width="0.26458332px" stroke-linecap="round" stroke-linejoin="round" stroke-opacity="1"/><path style="" d="m 17.884676,291.62011 0.743496,0.79832 -0.432306,0.66569 -1.031704,-0.35452 0.720514,-1.10949" fill="#000000" fill-opacity="1" stroke="#000000" stroke-width="0.26458332px" stroke-linecap="round" stroke-linejoin="round" stroke-opacity="1"/><path style="" d="m 16.983704,287.53576 0.354514,-1.0317 -0.665693,-0.4323 -0.798314,0.74349 1.109493,0.72051" fill="#000000" fill-opacity="1" stroke="#000000" stroke-width="0.26458332px" stroke-linecap="round" stroke-linejoin="round" stroke-opacity="1"/><circle style="opacity:0.95899999;vector-effect:none;fill:none;fill-opacity:1;fill-rule:evenodd;stroke:#000000;stroke-width:0.99999994;stroke-linecap:butt;stroke-linejoin:miter;stroke-miterlimit:4;stroke-dasharray:none;stroke-dashoffset:0;stroke-opacity:1;paint-order:normal" cx="-42.477329" cy="274.54535" r="3.3072917" transform="rotate(-12)"/><path style="" d="m 14.142465,274.02118 0.03876,-1.09022 0.776407,-0.165 0.478842,0.9802 -1.294003,0.27508" fill="#000000" fill-opacity="1" stroke="#000000" stroke-width="0.26458332px" stroke-linecap="round" stroke-linejoin="round" stroke-opacity="1"/><path style="" d="m 15.627733,281.00881 0.478843,0.9802 0.776407,-0.165 0.03876,-1.09022 -1.294004,0.27508" fill="#000000" fill-opacity="1" stroke="#000000" stroke-width="0.26458332px" stroke-linecap="round" stroke-linejoin="round" stroke-opacity="1"/><path style="" d="m 19.163444,277.28184 0.980203,-0.47884 -0.165026,-0.7764 -1.090226,-0.0388 0.275052,1.29401" fill="#000000" fill-opacity="1" stroke="#000000" stroke-width="0.26458332px" stroke-linecap="round" stroke-linejoin="round" stroke-opacity="1"/><path style="" d="m 12.175811,278.7671 -1.090223,-0.0388 -0.165025,-0.77639 0.980201,-0.47885 0.275051,1.29401" fill="#000000" fill-opacity="1" stroke="#000000" stroke-width="0.26458332px" stroke-linecap="round" stroke-linejoin="round" stroke-opacity="1"/><path style="" d="m 12.034172,276.23713 -0.743498,-0.79832 0.432308,-0.66569 1.031703,0.35452 -0.720513,1.10949" fill="#000000" fill-opacity="1" stroke="#000000" stroke-width="0.26458332px" stroke-linecap="round" stroke-linejoin="round" stroke-opacity="1"/><path style="" d="m 13.301152,280.2437 -0.354513,1.0317 0.665694,0.4323 0.79831,-0.7435 -1.109491,-0.7205" fill="#000000" fill-opacity="1" stroke="#000000" stroke-width="0.26458332px" stroke-linecap="round" stroke-linejoin="round" stroke-opacity="1"/><path style="" d="m 18.939767,278.77467 0.743496,0.79832 -0.432306,0.66569 -1.031704,-0.35452 0.720514,-1.10949" fill="#000000" fill-opacity="1" stroke="#000000" stroke-width="0.26458332px" stroke-linecap="round" stroke-linejoin="round" stroke-opacity="1"/><path style="" d="m 18.038795,274.69032 0.354514,-1.0317 -0.665693,-0.4323 -0.798314,0.74349 1.109493,0.72051" fill="#000000" fill-opacity="1" stroke="#000000" stroke-width="0.26458332px" stroke-linecap="round" stroke-linejoin="round" stroke-opacity="1"/></g><text x="0" y="41.458334" fill="#000000" font-size="5px" font-weight="bold" font-family="'Helvetica Neue', Helvetica, Arial-Unicode, Arial, Sans-serif">Created by Gyorgy Hunor-Arpad</text><text x="0" y="46.458334" fill="#000000" font-size="5px" font-weight="bold" font-family="'Helvetica Neue', Helvetica, Arial-Unicode, Arial, Sans-serif">from the Noun Project</text></svg>