<svg xmlns="http://www.w3.org/2000/svg" xmlns:xlink="http://www.w3.org/1999/xlink" version="1.1" x="0px" y="0px" viewBox="0 0 52 65" style="enable-background:new 0 0 52 52;" xml:space="preserve"><style type="text/css">
	.st0{fill:none;stroke:#000000;stroke-width:2;stroke-linecap:round;stroke-miterlimit:10;}
	.st1{fill:none;stroke:#000000;stroke-width:2;stroke-linecap:round;stroke-linejoin:round;stroke-miterlimit:10;}
	.st2{fill:none;stroke:#000000;stroke-width:2;stroke-linecap:round;stroke-linejoin:round;stroke-miterlimit:6;}
	.st3{fill:none;stroke:#000000;stroke-width:2;stroke-miterlimit:10;}
	.st4{fill:none;stroke:#000000;stroke-width:2;stroke-linejoin:round;stroke-miterlimit:10;}
</style><g><g><g><g><path d="M26.2988281,37.2983398c-0.2158203,0-0.4316406-0.0698242-0.6113281-0.2089844      C25.1894531,36.7045898,13.5,27.5600586,13.5,18.5c0-7.0571289,5.7412109-12.7983398,12.7988281-12.7983398      c7.0566406,0,12.7978516,5.7412109,12.7978516,12.7983398c0,9.6000977-11.7099609,18.2431641-12.2089844,18.6064453      C26.7119141,37.234375,26.5048828,37.2983398,26.2988281,37.2983398z M26.2988281,7.7016602      C20.3447266,7.7016602,15.5,12.5458984,15.5,18.5c0,7.003418,8.4677734,14.5620117,10.8144531,16.5224609      C28.671875,33.1459961,37.0966797,25.9179688,37.0966797,18.5C37.0966797,12.5458984,32.2529297,7.7016602,26.2988281,7.7016602      z"/></g></g><g><path d="M31.9648438,27.1679688H20.2988281c-0.5527344,0-1-0.4477539-1-1v-7.6118164h-1.4169922     c-0.4042969,0-0.7695313-0.2436523-0.9238281-0.6171875c-0.1552734-0.3740234-0.0693359-0.8037109,0.2167969-1.0898438     l7.9169922-7.9169922c0.3740234-0.3740234,0.9755859-0.3920898,1.3710938-0.0405273l8.9160156,7.9169922     c0.3105469,0.2753906,0.4179688,0.7143555,0.2705078,1.1025391s-0.5195313,0.6450195-0.9345703,0.6450195h-1.8964844     l0.1464844,7.5927734c0.0048828,0.2680664-0.0976563,0.5273438-0.2861328,0.7192383S32.2333984,27.1679688,31.9648438,27.1679688     z M21.2988281,25.1679688h9.6464844l-0.1464844-7.5927734c-0.0048828-0.2680664,0.0976563-0.5273438,0.2861328-0.7192383     s0.4453125-0.2998047,0.7138672-0.2998047h0.2841797l-6.2431641-5.543457l-5.5439453,5.543457h0.0029297     c0.5527344,0,1,0.4477539,1,1V25.1679688z"/></g><g><path d="M27.5,27.1679688h-3c-0.5527344,0-1-0.4477539-1-1v-5.4663086c0-0.5522461,0.4472656-1,1-1h3     c0.5527344,0,1,0.4477539,1,1v5.4663086C28.5,26.7202148,28.0527344,27.1679688,27.5,27.1679688z M25.5,25.1679688h1v-3.4663086     h-1V25.1679688z"/></g></g><g><path d="M26,46.2983398c-9.8134766,0-17.5-3.8647461-17.5-8.7983398c0-3.7514648,4.4580078-6.9926758,11.3574219-8.2568359    c0.5507813-0.0976563,1.0654297,0.2602539,1.1640625,0.8032227c0.0996094,0.5429688-0.2597656,1.0644531-0.8027344,1.1635742    C14.4960938,32.2587891,10.5,34.8452148,10.5,37.5c0,3.2832031,6.2285156,6.7983398,15.5,6.7983398S41.5,40.7832031,41.5,37.5    c0-2.8496094-3.0927734-5.1689453-8.2734375-6.2050781c-0.5410156-0.1083984-0.8925781-0.6347656-0.7841797-1.1767578    c0.1074219-0.5410156,0.6279297-0.8959961,1.1767578-0.7841797C39.8056641,30.5708008,43.5,33.6235352,43.5,37.5    C43.5,42.4335938,35.8134766,46.2983398,26,46.2983398z"/></g></g><text x="0" y="67" fill="#000000" font-size="5px" font-weight="bold" font-family="'Helvetica Neue', Helvetica, Arial-Unicode, Arial, Sans-serif">Created by rivercon</text><text x="0" y="72" fill="#000000" font-size="5px" font-weight="bold" font-family="'Helvetica Neue', Helvetica, Arial-Unicode, Arial, Sans-serif">from the Noun Project</text></svg>