<svg xmlns="http://www.w3.org/2000/svg" xmlns:xlink="http://www.w3.org/1999/xlink" version="1.1" x="0px" y="0px" viewBox="0 0 100 125" enable-background="new 0 0 100 100" xml:space="preserve"><path d="M32.6,75.1C18,75.1,6,63.2,6,48.5S18,22,32.6,22s26.6,11.9,26.6,26.6S47.3,75.1,32.6,75.1z M32.6,23.5  c-13.8,0-25.1,11.2-25.1,25.1s11.2,25.1,25.1,25.1s25.1-11.2,25.1-25.1S46.4,23.5,32.6,23.5z M32.6,66c-9.6,0-17.5-7.8-17.5-17.5  c0-9.6,7.8-17.5,17.5-17.5c9.6,0,17.5,7.8,17.5,17.5C50.1,58.2,42.2,66,32.6,66z M32.6,31.8c-9.2,0-16.7,7.5-16.7,16.7  s7.5,16.7,16.7,16.7c9.2,0,16.7-7.5,16.7-16.7S41.8,31.8,32.6,31.8z M32.6,63.7c-8.4,0-15.1-6.8-15.1-15.1c0-8.4,6.8-15.1,15.1-15.1  c8.4,0,15.1,6.8,15.1,15.1C47.8,56.9,41,63.7,32.6,63.7z M32.6,34.1c-7.9,0-14.4,6.5-14.4,14.4c0,7.9,6.5,14.4,14.4,14.4  S47,56.5,47,48.5C47,40.6,40.6,34.1,32.6,34.1z M68.1,73.5c-1,0-2.5-0.8-2.5-1.9l0.6-24.9c-3.2-1.1-5.5-4.7-5.5-8.6  c0-4.6,3.4-12,7.5-12c4.1,0,7.5,7.3,7.5,12c0,3.9-2.3,7.5-5.5,8.6l0.6,24.8C70.6,72.7,69.1,73.5,68.1,73.5z M68.1,27.6  c-2.8,0-6,6.2-6,10.5c0,3.8,2.5,6.7,5,7.3c0.4,0.1,0.6,0.5,0.6,0.8l-0.6,25.3c0.1,0.1,0.6,0.4,1,0.4c0.4,0,1-0.3,1-0.5l-0.6-25.2  c-0.1-0.4,0.2-0.8,0.6-0.9c2.4-0.6,5-3.5,5-7.3C74.1,33.8,70.9,27.6,68.1,27.6z M67.1,43.2c0.1-0.2,0.1-0.4-0.1-0.5  c-3.1-2.4-2.4-6.9-1.6-8.5c0.1-0.2,0-0.4-0.2-0.5c-0.2-0.1-0.4,0-0.5,0.2c-0.9,1.9-1.6,6.8,1.9,9.5c0.1,0.1,0.1,0.1,0.2,0.1  C66.9,43.4,67,43.3,67.1,43.2z M86.5,74c-1,0-2.5-0.8-2.5-2c0-0.2,0.5-20.6,0.6-24.8c-3,0-5.5-2.7-5.5-6.1V28.3c0-1.2,1-2.1,2.1-2.1  c1.2,0,2.1,1,2.1,2.1v7.5h1v-7.5c0-1.2,1-2.1,2.1-2.1c1.2,0,2.1,1,2.1,2.1v7.5h1v-7.5c0-1.2,1-2.1,2.1-2.1s2.1,1,2.1,2.1v12.9  c0,3.3-2.4,6.1-5.5,6.1c0.1,4.2,0.6,24.6,0.6,24.8C89.1,73.2,87.5,74,86.5,74z M81.2,27.6c-0.4,0-0.6,0.3-0.6,0.6v12.9  c0,2.5,1.8,4.6,4,4.6h0.7c0.2,0,0.4,0.1,0.5,0.2c0.1,0.1,0.2,0.3,0.2,0.5c0,0.1-0.5,21.3-0.6,25.6c0.1,0.1,0.6,0.4,1,0.4  c0.4,0,1-0.3,1-0.5C87.5,67.8,87,46.6,87,46.5c0-0.2,0.1-0.4,0.2-0.5c0.1-0.1,0.3-0.2,0.5-0.2h0.7c2.2,0,4-2,4-4.6V28.3  c0-0.4-0.3-0.6-0.6-0.6c-0.4,0-0.6,0.3-0.6,0.6v8.2c0,0.4-0.3,0.8-0.8,0.8h-2.5c-0.4,0-0.8-0.3-0.8-0.8v-8.2c0-0.4-0.3-0.6-0.6-0.6  c-0.4,0-0.6,0.3-0.6,0.6v8.2c0,0.4-0.3,0.8-0.8,0.8h-2.5c-0.4,0-0.8-0.3-0.8-0.8v-8.2C81.9,27.9,81.6,27.6,81.2,27.6z M85.3,44.2  c0-0.2-0.2-0.4-0.4-0.4c-1.5,0-2.6-1.3-2.6-3c0-0.2-0.2-0.4-0.4-0.4c-0.2,0-0.4,0.2-0.4,0.4c0,2.1,1.5,3.7,3.4,3.7  C85.2,44.6,85.3,44.4,85.3,44.2z"/><text x="0" y="115" fill="#000000" font-size="5px" font-weight="bold" font-family="'Helvetica Neue', Helvetica, Arial-Unicode, Arial, Sans-serif">Created by Vicons Design</text><text x="0" y="120" fill="#000000" font-size="5px" font-weight="bold" font-family="'Helvetica Neue', Helvetica, Arial-Unicode, Arial, Sans-serif">from the Noun Project</text></svg>