<svg xmlns="http://www.w3.org/2000/svg" xmlns:xlink="http://www.w3.org/1999/xlink" version="1.1" x="0px" y="0px" viewBox="0 0 100 125" enable-background="new 0 0 100 100" xml:space="preserve"><path d="M90.075,50.7H25.792L11.255,33.697c-0.476-0.558-1.248-0.76-1.936-0.505c-0.688,0.254-1.144,0.909-1.144,1.642v34.575  c0,0.352,0.106,0.695,0.304,0.985l15.386,22.57c0.027,0.04,0.056,0.08,0.086,0.118c0.157,0.2,0.351,0.357,0.565,0.469  c0.208,0.109,0.441,0.177,0.688,0.194c0.041,0.003,0.083,0.004,0.124,0.004c0.008,0,0.016,0,0.024,0h64.724  c0.966,0,1.75-0.783,1.75-1.75V52.45C91.825,51.483,91.042,50.7,90.075,50.7z M23.575,86.326l-11.9-17.457V39.574l11.9,13.919  V86.326z M88.325,90.25h-61.25V54.2h61.25V90.25z M13.425,30.475V16.75c0-0.967,0.784-1.75,1.75-1.75h9.619l5.825-8.027  c0.329-0.454,0.856-0.723,1.417-0.723h35.29c0.966,0,1.75,0.783,1.75,1.75v5.25h5.95c0.966,0,1.75,0.783,1.75,1.75v5.25h5.25  c0.966,0,1.75,0.783,1.75,1.75v24.775c0,0.967-0.784,1.75-1.75,1.75s-1.75-0.783-1.75-1.75V23.75h-5.25c-0.059,0-0.116,0-0.175,0  H47.891l-5.824,7.706c-0.331,0.438-0.848,0.694-1.396,0.694h-8.345v13.625c0,0.967-0.784,1.75-1.75,1.75s-1.75-0.783-1.75-1.75V30.4  c0-0.967,0.784-1.75,1.75-1.75h9.224l5.824-7.706c0.331-0.438,0.848-0.694,1.396-0.694h26.255v-3.5h-5.95c-0.06,0-0.117,0-0.175,0  H40.779l-5.824,7.705c-0.331,0.438-0.848,0.695-1.396,0.695h-9.285v12.675c0,0.967-0.784,1.75-1.75,1.75s-1.75-0.783-1.75-1.75V23.4  c0-0.967,0.784-1.75,1.75-1.75h10.164l5.824-7.705c0.331-0.438,0.848-0.695,1.396-0.695h25.667v-3.5H32.928l-5.825,8.027  c-0.329,0.454-0.856,0.723-1.417,0.723h-8.762v11.975c0,0.967-0.784,1.75-1.75,1.75S13.425,31.441,13.425,30.475z M44.25,77.375h8v8  c0,0.553,0.448,1,1,1h8.5c0.552,0,1-0.447,1-1v-8h8c0.552,0,1-0.447,1-1v-8.5c0-0.553-0.448-1-1-1h-8v-8c0-0.553-0.448-1-1-1h-8.5  c-0.552,0-1,0.447-1,1v8h-8c-0.552,0-1,0.447-1,1v8.5C43.25,76.928,43.698,77.375,44.25,77.375z M45.25,68.875h8  c0.552,0,1-0.447,1-1v-8h6.5v8c0,0.553,0.448,1,1,1h8v6.5h-8c-0.552,0-1,0.447-1,1v8h-6.5v-8c0-0.553-0.448-1-1-1h-8V68.875z"/><text x="0" y="115" fill="#000000" font-size="5px" font-weight="bold" font-family="'Helvetica Neue', Helvetica, Arial-Unicode, Arial, Sans-serif">Created by H Alberto Gongora</text><text x="0" y="120" fill="#000000" font-size="5px" font-weight="bold" font-family="'Helvetica Neue', Helvetica, Arial-Unicode, Arial, Sans-serif">from the Noun Project</text></svg>