<svg xmlns="http://www.w3.org/2000/svg" xmlns:xlink="http://www.w3.org/1999/xlink" version="1.1" x="0px" y="0px" viewBox="0 0 91 113.75" enable-background="new 0 0 91 91" xml:space="preserve"><g><rect x="15.781" y="44.077" width="10.447" height="3.4"/><rect x="64.154" y="44.077" width="10.449" height="3.4"/><rect x="43.492" y="64.741" width="3.4" height="10.447"/><rect x="43.492" y="16.366" width="3.4" height="10.447"/><rect x="22.866" y="61.181" transform="matrix(-0.7071 0.7071 -0.7071 -0.7071 92.4142 87.4825)" width="10.446" height="3.4"/><rect x="60.594" y="23.451" transform="matrix(0.7071 0.7071 -0.7071 0.7071 38.5218 -35.6502)" width="3.4" height="10.447"/><rect x="60.594" y="57.658" transform="matrix(-0.7071 0.7071 -0.7071 -0.7071 150.8067 63.2955)" width="3.4" height="10.446"/><rect x="22.863" y="26.975" transform="matrix(-0.7071 -0.7071 0.7071 -0.7071 27.6729 68.8121)" width="10.449" height="3.4"/></g><text x="0" y="106" fill="#000000" font-size="5px" font-weight="bold" font-family="'Helvetica Neue', Helvetica, Arial-Unicode, Arial, Sans-serif">Created by BomSymbols</text><text x="0" y="111" fill="#000000" font-size="5px" font-weight="bold" font-family="'Helvetica Neue', Helvetica, Arial-Unicode, Arial, Sans-serif">from the Noun Project</text></svg>