<svg xmlns:dc="http://purl.org/dc/elements/1.1/" xmlns:cc="http://creativecommons.org/ns#" xmlns:rdf="http://www.w3.org/1999/02/22-rdf-syntax-ns#" xmlns:svg="http://www.w3.org/2000/svg" xmlns="http://www.w3.org/2000/svg" xmlns:sodipodi="http://sodipodi.sourceforge.net/DTD/sodipodi-0.dtd" xmlns:inkscape="http://www.inkscape.org/namespaces/inkscape" version="1.1" x="0px" y="0px" viewBox="0 0 100 125"><g transform="translate(0,-952.36218)"><path style="text-indent:0;text-transform:none;direction:ltr;block-progression:tb;baseline-shift:baseline;color:#000000;enable-background:accumulate;" d="m 50,961.36217 c -9.3652,0 -17,7.63485 -17,17 0,9.36515 7.6348,17 17,17 9.3652,0 17,-7.63485 17,-17 0,-9.36515 -7.6348,-17 -17,-17 z m 0,4 c 7.2034,0 13,5.79661 13,13 0,7.20339 -5.7966,13 -13,13 -7.2034,0 -13,-5.79661 -13,-13 0,-7.20339 5.7966,-13 13,-13 z m 0,34 c -8.67768,0 -16.53465,2.34433 -22.34375,6.25003 -5.8091,3.9057 -9.65625,9.5097 -9.65625,15.75 l 0,20 a 2.0002,2.0002 0 0 0 2,2 l 60,0 a 2.0002,2.0002 0 0 0 2,-2 l 0,-20 c 0,-6.2403 -3.84715,-11.8443 -9.65625,-15.75 C 66.53465,1001.7065 58.67768,999.36217 50,999.36217 z m 0,4.00003 c 7.94232,0 15.0891,2.2079 20.125,5.5937 5.0359,3.3859 7.875,7.8127 7.875,12.4063 l 0,18 -56,0 0,-18 c 0,-4.5936 2.8391,-9.0204 7.875,-12.4063 5.0359,-3.3858 12.18268,-5.5937 20.125,-5.5937 z" fill="#000000" fill-opacity="1" stroke="none" marker="none" visibility="visible" display="inline" overflow="visible"/></g><text x="0" y="115" fill="#000000" font-size="5px" font-weight="bold" font-family="'Helvetica Neue', Helvetica, Arial-Unicode, Arial, Sans-serif">Created by Rockicon</text><text x="0" y="120" fill="#000000" font-size="5px" font-weight="bold" font-family="'Helvetica Neue', Helvetica, Arial-Unicode, Arial, Sans-serif">from the Noun Project</text></svg>