<svg xmlns="http://www.w3.org/2000/svg" xmlns:xlink="http://www.w3.org/1999/xlink" version="1.1" x="0px" y="0px" viewBox="0 0 100 125" enable-background="new 0 0 100 100" xml:space="preserve"><path fill-rule="evenodd" clip-rule="evenodd" d="M66.115,97.345h-31.23c-6.037,0-10.931-4.894-10.931-10.931V14.585  c0-6.037,4.894-10.93,10.931-10.93h31.23c6.037,0,10.93,4.894,10.93,10.93v71.829C77.045,92.451,72.152,97.345,66.115,97.345z   M50.5,92.465c2.588,0,4.685-2.098,4.685-4.685c0-2.586-2.097-4.685-4.685-4.685s-4.685,2.099-4.685,4.685  C45.815,90.367,47.912,92.465,50.5,92.465z M53.623,8.34h-6.246v3.123h6.246V8.34z M70.8,16.147H30.201v62.459H70.8V16.147z"/><text x="0" y="115" fill="#000000" font-size="5px" font-weight="bold" font-family="'Helvetica Neue', Helvetica, Arial-Unicode, Arial, Sans-serif">Created by Rohith M S</text><text x="0" y="120" fill="#000000" font-size="5px" font-weight="bold" font-family="'Helvetica Neue', Helvetica, Arial-Unicode, Arial, Sans-serif">from the Noun Project</text></svg>