<svg xmlns="http://www.w3.org/2000/svg" xmlns:xlink="http://www.w3.org/1999/xlink" version="1.1" x="0px" y="0px" viewBox="0 0 91 113.75" style="enable-background:new 0 0 91 91;" xml:space="preserve"><g><path d="M39.8,58.1L52,67.4l3-2l-3.4-13.5c6.4-5.6,10.1-13.5,10.1-22c0-16.1-13.1-29.2-29.2-29.2S3.4,13.7,3.4,29.8   C3.4,45.9,16.5,59,32.6,59C35,59,37.4,58.7,39.8,58.1z M7.2,29.8c0-14,11.4-25.3,25.3-25.3s25.3,11.4,25.3,25.3   c0,7.8-3.5,15-9.6,19.8l-0.7,2L50,61l-8.6-6.6l-1.7-0.3c-2.3,0.7-4.7,1-7.1,1C18.6,55.1,7.2,43.8,7.2,29.8z"/><path d="M86.9,29.6c-2.3-5-6.3-6.7-8.7-7.3c-1.4-0.3-2.8,0.3-3.5,1.2c-2.4,3.1-7.8,10.3-9.8,14.1c-0.6,1.1-0.6,2.7,0.1,3.6   c1.2,1.7,2.4,3.3,3.8,4.9c2.8,3.2,1.8,7.3,0.6,9.2c-2,3.1-4.6,6.3-7.5,9.2c-2.9,2.9-6,5.5-9.2,7.6c-1.9,1.2-6.1,2.2-9.2-0.6   c-1.5-1.4-3.1-2.7-4.9-3.8c-1-0.7-2.5-0.6-3.6-0.1c-3.8,2-11,7.4-14.1,9.8c-0.9,0.7-1.5,2.1-1.2,3.5c0.6,2.5,2.3,6.4,7.3,8.8   c7.8,3.6,29.8-6.6,41.3-18.1c0.1-0.1,0.2-0.2,0.3-0.3c0.1-0.1,0.2-0.2,0.3-0.3C80.2,59.5,90.5,37.4,86.9,29.6z"/><path d="M16.1,22.6h32.8c1.1,0,1.9-0.9,1.9-1.9c0-1.1-0.9-1.9-1.9-1.9H16.1c-1.1,0-1.9,0.9-1.9,1.9C14.2,21.7,15.1,22.6,16.1,22.6z   "/><path d="M26.8,32c1.1,0,1.9-0.9,1.9-1.9s-0.9-1.9-1.9-1.9H16.3c-1.1,0-1.9,0.9-1.9,1.9s0.9,1.9,1.9,1.9H26.8z"/><path d="M33.2,32h15.6c1.1,0,1.9-0.9,1.9-1.9s-0.9-1.9-1.9-1.9H33.2c-1.1,0-1.9,0.9-1.9,1.9S32.1,32,33.2,32z"/><path d="M35.5,41c0.9,0,1.6-0.7,1.6-1.6s-0.7-1.6-1.6-1.6h-2.6c-0.9,0-1.6,0.7-1.6,1.6S32,41,32.9,41H35.5z"/><path d="M27.8,37.8h-2.6c-0.9,0-1.6,0.7-1.6,1.6s0.7,1.6,1.6,1.6h2.6c0.9,0,1.6-0.7,1.6-1.6S28.7,37.8,27.8,37.8z"/><path d="M20.1,37.8h-2.6c-0.9,0-1.6,0.7-1.6,1.6s0.7,1.6,1.6,1.6h2.6c0.9,0,1.6-0.7,1.6-1.6S21,37.8,20.1,37.8z"/></g><text x="0" y="106" fill="#000000" font-size="5px" font-weight="bold" font-family="'Helvetica Neue', Helvetica, Arial-Unicode, Arial, Sans-serif">Created by BomSymbols</text><text x="0" y="111" fill="#000000" font-size="5px" font-weight="bold" font-family="'Helvetica Neue', Helvetica, Arial-Unicode, Arial, Sans-serif">from the Noun Project</text></svg>