<svg xmlns="http://www.w3.org/2000/svg" xmlns:xlink="http://www.w3.org/1999/xlink" version="1.1" x="0px" y="0px" viewBox="0 0 96 120" enable-background="new 0 0 96 96" xml:space="preserve"><g><g><g><path fill="#000000" d="M85.479,85.479l-63.98-8.992l9.929-70.649l63.98,8.992L85.479,85.479z M26.017,73.083l56.059,7.878     l8.815-62.728l-56.059-7.878L26.017,73.083z"/></g><g><polygon fill="#000000" points="25.897,69.713 23.491,66.519 51.71,45.254 64.377,62.064 61.182,64.471 50.923,50.856    "/></g><g><polygon fill="#000000" points="85.46,61.083 72.335,43.665 56.819,55.357 54.411,52.163 73.122,38.063 88.655,58.675    "/></g><g><path fill="#000000" d="M49.134,36.081c-0.406,0-0.818-0.029-1.224-0.086c-4.77-0.67-8.104-5.096-7.434-9.865     c0.603-4.287,4.317-7.52,8.642-7.52c0.406,0,0.818,0.029,1.224,0.086c4.77,0.67,8.104,5.096,7.434,9.865     C57.173,32.848,53.458,36.081,49.134,36.081z M49.118,22.61c-2.342,0-4.354,1.752-4.681,4.076     c-0.363,2.585,1.444,4.984,4.029,5.348c2.618,0.364,4.991-1.487,5.348-4.03c0.363-2.585-1.444-4.984-4.029-5.347     C49.561,22.626,49.338,22.61,49.118,22.61z"/></g></g><g><polygon fill="#000000" points="10.498,90.534 0.566,19.863 31.532,15.511 32.089,19.472 5.084,23.267 13.896,85.973     63.135,78.513 63.734,82.468   "/></g></g><text x="0" y="111" fill="#000000" font-size="5px" font-weight="bold" font-family="'Helvetica Neue', Helvetica, Arial-Unicode, Arial, Sans-serif">Created by Yaroslav Samoylov</text><text x="0" y="116" fill="#000000" font-size="5px" font-weight="bold" font-family="'Helvetica Neue', Helvetica, Arial-Unicode, Arial, Sans-serif">from the Noun Project</text></svg>