<svg xmlns="http://www.w3.org/2000/svg" data-name="Layer 1" viewBox="0 0 100 125" x="0px" y="0px"><title>groups</title><circle cx="19.74" cy="15.01" r="2.48"/><path d="M21.54,18.26h-3.6a2.55,2.55,0,0,0-2.55,2.55V26a2.55,2.55,0,0,0,2.06,2.5v5.64A1.88,1.88,0,0,0,19.33,36h0.82A1.88,1.88,0,0,0,22,34.13h0V28.48A2.55,2.55,0,0,0,24.09,26V20.8A2.55,2.55,0,0,0,21.54,18.26Z"/><circle cx="31.84" cy="15.01" r="2.48"/><path d="M33.64,18.26H30a2.55,2.55,0,0,0-2.55,2.55V26a2.55,2.55,0,0,0,2.06,2.5v5.64A1.88,1.88,0,0,0,31.43,36h0.82a1.88,1.88,0,0,0,1.88-1.88h0V28.48A2.55,2.55,0,0,0,36.19,26V20.8A2.55,2.55,0,0,0,33.64,18.26Z"/><circle cx="56.05" cy="15.01" r="2.48"/><path d="M57.85,18.26h-3.6a2.55,2.55,0,0,0-2.55,2.55V26a2.55,2.55,0,0,0,2.06,2.5v5.64A1.88,1.88,0,0,0,55.64,36h0.82a1.88,1.88,0,0,0,1.88-1.88h0V28.48A2.55,2.55,0,0,0,60.4,26V20.8A2.55,2.55,0,0,0,57.85,18.26Z"/><circle cx="68.16" cy="15.01" r="2.48"/><path d="M70,18.26h-3.6a2.55,2.55,0,0,0-2.55,2.55V26a2.55,2.55,0,0,0,2.06,2.5v5.64A1.88,1.88,0,0,0,67.75,36h0.82a1.88,1.88,0,0,0,1.88-1.88h0V28.48A2.55,2.55,0,0,0,72.51,26V20.8A2.55,2.55,0,0,0,70,18.26Z"/><circle cx="80.26" cy="15.01" r="2.48"/><path d="M82.06,18.26h-3.6a2.55,2.55,0,0,0-2.55,2.55V26A2.55,2.55,0,0,0,78,28.49v5.64A1.88,1.88,0,0,0,79.85,36h0.82a1.88,1.88,0,0,0,1.88-1.88h0V28.48A2.55,2.55,0,0,0,84.61,26V20.8A2.55,2.55,0,0,0,82.06,18.26Z"/><circle cx="19.74" cy="40.74" r="2.48"/><path d="M21.54,44h-3.6a2.55,2.55,0,0,0-2.55,2.55v5.18a2.55,2.55,0,0,0,2.06,2.5v5.64a1.88,1.88,0,0,0,1.88,1.88h0.82A1.88,1.88,0,0,0,22,59.86h0V54.21a2.55,2.55,0,0,0,2.06-2.5V46.53A2.55,2.55,0,0,0,21.54,44Z"/><circle cx="31.84" cy="40.74" r="2.48"/><path d="M33.64,44H30a2.55,2.55,0,0,0-2.55,2.55v5.18a2.55,2.55,0,0,0,2.06,2.5v5.64a1.88,1.88,0,0,0,1.88,1.88h0.82a1.88,1.88,0,0,0,1.88-1.88h0V54.21a2.55,2.55,0,0,0,2.06-2.5V46.53A2.55,2.55,0,0,0,33.64,44Z"/><circle cx="43.95" cy="40.74" r="2.48"/><path d="M45.75,44h-3.6a2.55,2.55,0,0,0-2.55,2.55v5.18a2.55,2.55,0,0,0,2.06,2.5v5.64a1.88,1.88,0,0,0,1.88,1.88h0.82a1.88,1.88,0,0,0,1.88-1.88h0V54.21a2.55,2.55,0,0,0,2.06-2.5V46.53A2.55,2.55,0,0,0,45.75,44Z"/><circle cx="56.05" cy="40.74" r="2.48"/><path d="M57.85,44h-3.6a2.55,2.55,0,0,0-2.55,2.55v5.18a2.55,2.55,0,0,0,2.06,2.5v5.64a1.88,1.88,0,0,0,1.88,1.88h0.82a1.88,1.88,0,0,0,1.88-1.88h0V54.21a2.55,2.55,0,0,0,2.06-2.5V46.53A2.55,2.55,0,0,0,57.85,44Z"/><circle cx="80.26" cy="40.74" r="2.48"/><path d="M82.06,44h-3.6a2.55,2.55,0,0,0-2.55,2.55v5.18A2.55,2.55,0,0,0,78,54.22v5.64a1.88,1.88,0,0,0,1.88,1.88h0.82a1.88,1.88,0,0,0,1.88-1.88h0V54.21a2.55,2.55,0,0,0,2.06-2.5V46.53A2.55,2.55,0,0,0,82.06,44Z"/><circle cx="19.74" cy="66.47" r="2.48"/><path d="M21.54,69.72h-3.6a2.55,2.55,0,0,0-2.55,2.55v5.18a2.55,2.55,0,0,0,2.06,2.5v5.64a1.88,1.88,0,0,0,1.88,1.88h0.82A1.88,1.88,0,0,0,22,85.59h0V79.94a2.55,2.55,0,0,0,2.06-2.5V72.26A2.55,2.55,0,0,0,21.54,69.72Z"/><circle cx="43.95" cy="66.47" r="2.48"/><path d="M45.75,69.72h-3.6a2.55,2.55,0,0,0-2.55,2.55v5.18a2.55,2.55,0,0,0,2.06,2.5v5.64a1.88,1.88,0,0,0,1.88,1.88h0.82a1.88,1.88,0,0,0,1.88-1.88h0V79.94a2.55,2.55,0,0,0,2.06-2.5V72.26A2.55,2.55,0,0,0,45.75,69.72Z"/><circle cx="56.05" cy="66.47" r="2.48"/><path d="M57.85,69.72h-3.6a2.55,2.55,0,0,0-2.55,2.55v5.18a2.55,2.55,0,0,0,2.06,2.5v5.64a1.88,1.88,0,0,0,1.88,1.88h0.82a1.88,1.88,0,0,0,1.88-1.88h0V79.94a2.55,2.55,0,0,0,2.06-2.5V72.26A2.55,2.55,0,0,0,57.85,69.72Z"/><circle cx="68.16" cy="66.47" r="2.48"/><path d="M70,69.72h-3.6a2.55,2.55,0,0,0-2.55,2.55v5.18a2.55,2.55,0,0,0,2.06,2.5v5.64a1.88,1.88,0,0,0,1.88,1.88h0.82a1.88,1.88,0,0,0,1.88-1.88h0V79.94a2.55,2.55,0,0,0,2.06-2.5V72.26A2.55,2.55,0,0,0,70,69.72Z"/><circle cx="80.26" cy="66.47" r="2.48"/><path d="M82.06,69.72h-3.6a2.55,2.55,0,0,0-2.55,2.55v5.18A2.55,2.55,0,0,0,78,79.95v5.64a1.88,1.88,0,0,0,1.88,1.88h0.82a1.88,1.88,0,0,0,1.88-1.88h0V79.94a2.55,2.55,0,0,0,2.06-2.5V72.26A2.55,2.55,0,0,0,82.06,69.72Z"/><text x="0" y="115" fill="#000000" font-size="5px" font-weight="bold" font-family="'Helvetica Neue', Helvetica, Arial-Unicode, Arial, Sans-serif">Created by Eliricon</text><text x="0" y="120" fill="#000000" font-size="5px" font-weight="bold" font-family="'Helvetica Neue', Helvetica, Arial-Unicode, Arial, Sans-serif">from the Noun Project</text></svg>