<svg xmlns="http://www.w3.org/2000/svg" xmlns:xlink="http://www.w3.org/1999/xlink" version="1.1" x="0px" y="0px" viewBox="0 0 100 125" enable-background="new 0 0 100 100" xml:space="preserve"><g><path d="M8.7,5v90h61.8l20.8-15.7V46.8v-3.6V5H8.7z M71.5,90.4l-0.1-10.4h13.9L71.5,90.4z M88.2,52.7V77h-20l0.2,14.9H11.8V8.1   h76.5v41V52.7z"/><rect x="77.1" y="48.4" width="4.6" height="14.3"/><rect x="70.8" y="53.8" width="4.6" height="9"/><rect x="64.4" y="49.9" width="4.6" height="12.8"/><rect x="58" y="55.6" width="4.6" height="7.2"/><path d="M79.4,43.1c1.2,0,2.2-1,2.2-2.2c0-1.2-1-2.2-2.2-2.2c-1.2,0-2.2,1-2.2,2.2c0,0.4,0.1,0.8,0.3,1.1l-3.5,4   c-0.3-0.1-0.6-0.2-0.9-0.2c-0.5,0-0.9,0.1-1.2,0.4l-3-2.3c0-0.2,0.1-0.4,0.1-0.5c0-1.2-1-2.2-2.2-2.2c-1.2,0-2.2,1-2.2,2.2   c0,0.3,0.1,0.7,0.2,0.9l-3.5,4c-0.3-0.1-0.5-0.2-0.8-0.2c-1.2,0-2.2,1-2.2,2.2c0,1.2,1,2.2,2.2,2.2c1.2,0,2.2-1,2.2-2.2   c0-0.4-0.1-0.8-0.3-1.1l3.5-3.9c0.3,0.1,0.6,0.2,1,0.2c0.5,0,1-0.2,1.3-0.4l2.9,2.3c-0.1,0.2-0.1,0.4-0.1,0.7c0,1.2,1,2.2,2.2,2.2   c1.2,0,2.2-1,2.2-2.2c0-0.4-0.1-0.7-0.3-1l3.6-4C78.8,43.1,79.1,43.1,79.4,43.1z M78.7,40.8C78.7,40.7,78.7,40.7,78.7,40.8   c0-0.1,0-0.1,0-0.1c0,0,0-0.1,0.1-0.1c0,0,0,0,0,0c0,0,0-0.1,0.1-0.1c0.1-0.2,0.3-0.3,0.6-0.3c0.4,0,0.7,0.3,0.7,0.7   c0,0.2-0.1,0.4-0.2,0.5c0,0-0.1,0.1-0.1,0.1c0,0,0,0,0,0c0,0-0.1,0.1-0.1,0.1c0,0,0,0,0,0c0,0-0.1,0-0.1,0c0,0,0,0,0,0   c-0.1,0-0.1,0-0.2,0c-0.4,0-0.7-0.3-0.7-0.7C78.7,40.9,78.7,40.8,78.7,40.8z M61,50.4C61,50.5,61,50.5,61,50.4c0,0.1,0,0.1,0,0.1   c0,0,0,0.1-0.1,0.1c0,0,0,0,0,0c0,0,0,0.1-0.1,0.1c-0.1,0.2-0.3,0.3-0.6,0.3c-0.4,0-0.7-0.3-0.7-0.7c0-0.2,0.1-0.4,0.2-0.5   c0.1-0.1,0.1-0.1,0.2-0.2c0,0,0,0,0,0c0,0,0.1,0,0.1,0c0,0,0,0,0,0c0.1,0,0.1,0,0.2,0c0.4,0,0.7,0.3,0.7,0.7   C61,50.3,61,50.4,61,50.4z M66.7,44.1c-0.4,0-0.7-0.3-0.7-0.7c0-0.4,0.3-0.7,0.7-0.7s0.7,0.3,0.7,0.7   C67.4,43.7,67.1,44.1,66.7,44.1z M73,48.8c-0.4,0-0.7-0.3-0.7-0.7c0-0.4,0.3-0.7,0.7-0.7s0.7,0.3,0.7,0.7   C73.8,48.4,73.5,48.8,73,48.8z"/><path d="M28.6,34.7c1.7,0,3.3-0.4,4.8-1.1l-6-9.1V12.9c-5.5,0.6-9.7,5.2-9.7,10.9C17.7,29.8,22.6,34.7,28.6,34.7z"/><path d="M29.5,12.8v9.8h10C39,17.4,34.8,13.3,29.5,12.8z"/><path d="M30.1,24.8l5,7.7c2.4-1.8,4-4.5,4.3-7.7H30.1z"/><path d="M49.9,42.6H19.5c-0.7,0-1.2,0.5-1.2,1.2c0,0.7,0.5,1.2,1.2,1.2h30.4c0.7,0,1.2-0.5,1.2-1.2C51.1,43.2,50.6,42.6,49.9,42.6z   "/><path d="M49.9,55.6H19.5c-0.7,0-1.2,0.5-1.2,1.2s0.5,1.2,1.2,1.2h30.4c0.7,0,1.2-0.5,1.2-1.2S50.6,55.6,49.9,55.6z"/><path d="M79.9,68.6H19.5c-0.7,0-1.2,0.5-1.2,1.2c0,0.7,0.5,1.2,1.2,1.2h60.4c0.7,0,1.2-0.5,1.2-1.2C81.1,69.1,80.6,68.6,79.9,68.6z   "/><path d="M60.5,80.9h-41c-0.7,0-1.2,0.5-1.2,1.2c0,0.7,0.5,1.2,1.2,1.2h41c0.7,0,1.2-0.5,1.2-1.2C61.7,81.5,61.2,80.9,60.5,80.9z"/><path d="M44,32.1H80c0.7,0,1.2-0.5,1.2-1.2c0-0.7-0.5-1.2-1.2-1.2H44c-0.7,0-1.2,0.5-1.2,1.2C42.8,31.6,43.4,32.1,44,32.1z"/><path d="M44,19.1H80c0.7,0,1.2-0.5,1.2-1.2s-0.5-1.2-1.2-1.2H44c-0.7,0-1.2,0.5-1.2,1.2S43.4,19.1,44,19.1z"/></g><text x="0" y="115" fill="#000000" font-size="5px" font-weight="bold" font-family="'Helvetica Neue', Helvetica, Arial-Unicode, Arial, Sans-serif">Created by parkjisun</text><text x="0" y="120" fill="#000000" font-size="5px" font-weight="bold" font-family="'Helvetica Neue', Helvetica, Arial-Unicode, Arial, Sans-serif">from the Noun Project</text></svg>