<svg xmlns="http://www.w3.org/2000/svg" xmlns:xlink="http://www.w3.org/1999/xlink" version="1.1" x="0px" y="0px" viewBox="0 0 25 31.25" enable-background="new 0 0 25 25" xml:space="preserve"><g><g><path d="M20,13.5h-7v-4C13,9.224,12.776,9,12.5,9S12,9.224,12,9.5v4H5c-1.378,0-2.5,1.121-2.5,2.5v2c0,1.379,1.122,2.5,2.5,2.5    h1.5V21c0,0.276,0.224,0.5,0.5,0.5s0.5-0.224,0.5-0.5v-0.5h10V21c0,0.276,0.224,0.5,0.5,0.5s0.5-0.224,0.5-0.5v-0.5H20    c1.378,0,2.5-1.121,2.5-2.5v-2C22.5,14.621,21.378,13.5,20,13.5z M21.5,18c0,0.827-0.673,1.5-1.5,1.5H5    c-0.827,0-1.5-0.673-1.5-1.5v-2c0-0.827,0.673-1.5,1.5-1.5h15c0.827,0,1.5,0.673,1.5,1.5V18z"/><path d="M7,16.5H6c-0.276,0-0.5,0.224-0.5,0.5s0.224,0.5,0.5,0.5h1c0.276,0,0.5-0.224,0.5-0.5S7.276,16.5,7,16.5z"/><path d="M11,16.5h-1c-0.276,0-0.5,0.224-0.5,0.5s0.224,0.5,0.5,0.5h1c0.276,0,0.5-0.224,0.5-0.5S11.276,16.5,11,16.5z"/><path d="M20,16.5h-1c-0.276,0-0.5,0.224-0.5,0.5s0.224,0.5,0.5,0.5h1c0.276,0,0.5-0.224,0.5-0.5S20.276,16.5,20,16.5z"/><path d="M10.732,7.232c-0.195,0.195-0.195,0.512,0,0.707s0.512,0.195,0.707,0c0.566-0.566,1.555-0.566,2.121,0    c0.098,0.098,0.226,0.146,0.354,0.146s0.256-0.049,0.354-0.146c0.195-0.195,0.195-0.512,0-0.707    C13.324,6.287,11.676,6.287,10.732,7.232z"/><path d="M16.389,5.818c0.195-0.195,0.195-0.512,0-0.707C15.351,4.072,13.969,3.5,12.5,3.5c-1.469,0-2.85,0.572-3.889,1.611    c-0.195,0.195-0.195,0.512,0,0.707c0.098,0.098,0.226,0.146,0.354,0.146S9.22,5.916,9.318,5.818C10.168,4.968,11.298,4.5,12.5,4.5    c1.202,0,2.332,0.468,3.182,1.318C15.877,6.014,16.194,6.014,16.389,5.818z"/></g></g><text x="0" y="40" fill="#000000" font-size="5px" font-weight="bold" font-family="'Helvetica Neue', Helvetica, Arial-Unicode, Arial, Sans-serif">Created by Ralf Schmitzer</text><text x="0" y="45" fill="#000000" font-size="5px" font-weight="bold" font-family="'Helvetica Neue', Helvetica, Arial-Unicode, Arial, Sans-serif">from the Noun Project</text></svg>