<svg xmlns="http://www.w3.org/2000/svg" xmlns:xlink="http://www.w3.org/1999/xlink" xml:space="preserve" version="1.1" style="shape-rendering:geometricPrecision;text-rendering:geometricPrecision;image-rendering:optimizeQuality;" viewBox="0 0 333 416.25" x="0px" y="0px" fill-rule="evenodd" clip-rule="evenodd"><defs><style type="text/css">
   
    .str1 {stroke:black;stroke-width:6.94488}
    .str0 {stroke:black;stroke-width:6.94488;stroke-linecap:round;stroke-linejoin:round}
    .fil0 {fill:none}
    .fil1 {fill:black}
   
  </style></defs><g><path class="fil0 str0" d="M-1827 -501c0,0 19,25 61,-8 0,0 36,16 43,50 0,4 19,11 11,-13 0,0 -12,-34 -38,-45 0,0 14,-15 14,-28 0,0 49,-6 52,-25 2,-21 -41,34 -71,-5 -37,-15 -67,46 -33,25 0,0 9,-18 27,-8 0,0 -19,54 -52,50 -6,-1 -15,-8 -14,7z"/><circle class="fil0 str0" cx="-1727" cy="-591" r="18"/><line class="fil0 str0" x1="-1834" y1="-593" x2="-1762" y2="-593"/><line class="fil0 str0" x1="-1894" y1="-563" x2="-1822" y2="-563"/><line class="fil0 str0" x1="-1871" y1="-527" x2="-1799" y2="-527"/><line class="fil0 str0" x1="-1902" y1="-488" x2="-1830" y2="-488"/><path class="fil0 str0" d="M-965 -509l-44 31c-4,3 -26,5 -18,-16l44 -39c0,0 10,-35 22,-34l47 0c0,0 12,5 20,34l43 39c0,0 9,21 -14,18l-43 -33 -1 13c15,15 68,56 29,70l-81 0c0,0 -24,-16 -1,-34l37 0c0,0 1,-9 -9,-9 -11,0 -31,0 -31,0 0,0 -29,15 -10,43l-20 0c-39,-13 15,-56 30,-71l0 -12z"/><circle class="fil0 str1" cx="-937" cy="-607" r="30"/><path class="fil0 str1" d="M-602 -547l1 121c0,7 31,-3 35,-37 0,0 92,57 149,-18 0,0 1,-101 -37,-143 0,0 -59,-51 -77,12 0,0 10,44 57,22 0,0 9,48 -10,66 0,0 -22,-22 -53,-5 0,0 -14,-30 -65,-18z"/><path class="fil0 str1" d="M2010 -2039l0 219c0,0 -37,87 -123,63 0,0 -37,67 -117,47 -187,-126 115,-471 230,-400 6,-6 13,-10 20,-14l0 -206 60 0 0 205c9,4 17,9 23,15 112,-81 419,273 231,400 -80,20 -117,-47 -117,-47 -87,24 -123,-63 -123,-63l0 -219c-24,-56 -61,-56 -84,0z"/><circle class="fil0 str0" cx="180" cy="68" r="44"/><polyline class="fil0 str0" points="180,45 180,68 210,68 "/><path class="fil1" d="M300 249l-279 0 0 59 25 0 0 -34 254 -1 0 35 24 0 0 -163c0,-7 -6,-12 -12,-12 -7,0 -12,5 -12,12l0 104z"/><path class="fil1" d="M289 244l-262 0c0,0 -4,-42 14,-44 19,-2 189,-29 189,-8l0 30c0,4 43,24 56,-2 0,0 14,11 3,24z"/><path class="fil1" d="M260 223c-11,0 -20,-9 -20,-20 0,-11 9,-19 20,-19 11,0 20,8 20,19 0,11 -9,20 -20,20z"/></g><text x="0" y="348" fill="#000000" font-size="5px" font-weight="bold" font-family="'Helvetica Neue', Helvetica, Arial-Unicode, Arial, Sans-serif">Created by BGBOXXX Design</text><text x="0" y="353" fill="#000000" font-size="5px" font-weight="bold" font-family="'Helvetica Neue', Helvetica, Arial-Unicode, Arial, Sans-serif">from the Noun Project</text></svg>