<svg xmlns="http://www.w3.org/2000/svg" xmlns:xlink="http://www.w3.org/1999/xlink" version="1.1" x="0px" y="0px" viewBox="0 0 100 125" style="enable-background:new 0 0 100 100;" xml:space="preserve"><path d="M23,62.3c-0.3,0.9-1.1,1.4-1.9,1.4c-0.2,0-0.4,0-0.6-0.1c-3.9-1.2-6.7-5.3-6.7-9.9v-24l-8.7-4.3c-0.7-0.3-1.1-1-1.1-1.8  s0.4-1.5,1.1-1.8l8.7-4.3v-2.2C13.8,9.6,18,5,23,5h52.8C80.9,5,85,9.6,85,15.3v28.4c0,1.1-0.9,2-2,2s-2-0.9-2-2V15.3  c0-3.5-2.3-6.3-5.2-6.3H23c-2.8,0-5.2,2.8-5.2,6.3v3.4c0,0.8-0.4,1.5-1.1,1.8l-6.2,3.1l6.2,3.1c0.7,0.3,1.1,1,1.1,1.8v25.2  c0,2.9,1.6,5.4,3.9,6.1C22.8,60.1,23.4,61.3,23,62.3z M91.8,73.2c0.4,2.2,0.7,6.9-2.7,9.7c0.1,0.9,0.1,1,0.1,1.2  c0,2.2-0.6,4.2-1.8,5.7c-3,3.8-9.3,4.7-13.7,5c-1.3,0.1-2.8,0.1-4.3,0.1c-5.2,0-11.5-0.5-17.1-1c-3.7-0.3-7.1-0.6-10-0.7  c-0.8,0.4-1.8,0.7-2.8,0.7H32c-3.3,0-6-2.7-6-6V65.2c0-3.3,2.7-6,6-6h7.5c1.2,0,2.4,0.4,3.4,1c0.4-0.4,0.8-0.8,1.2-1.2  c1.6-1.8,3.2-3.4,4.5-5.3c2.1-2.9,3.8-6.3,5.5-9.5l0.1-0.1c1.4-2.7,2.8-5.6,3.8-8.6c0.3-1,0.6-2.2,0.8-3.4c0.3-1.9,0.7-3.8,1.6-5.5  c0.5-1,1.8-2.4,5.5-1c2.2,0.8,4,2.4,5.2,4.2c2.5,4.1,1,9.3-0.1,13l0,0.1c-0.1,0.5-0.3,0.9-0.4,1.4c-0.4,1.3-0.8,2.6-1,3.9  c-0.1,0.3-0.1,0.6-0.2,1c-0.2,0.9-0.4,2-0.5,2.9c1.1-0.2,2.6-0.6,3.2-0.8c0.7-0.2,1.1-0.3,1.3-0.3c5.2-0.9,11.7-1.5,15.9,1.6  c3.9,3,4,6.9,2.9,9.6c0.9,1.2,2,3.3,2,5.8C94,69.8,93.2,71.6,91.8,73.2z M90,67.8c0-2.1-1.8-4-1.8-4c-0.7-0.7-0.8-1.8-0.2-2.6  c0.5-0.7,1.8-3.1-1.2-5.5c-3.3-2.5-10.2-1.3-12.8-0.9c-0.2,0-0.5,0.1-0.9,0.2c-3.9,1.1-5.7,1.4-7,0.7c-0.6-0.3-0.9-0.8-1.1-1.4  c-0.5-1.9,0-4.2,0.4-6.1c0.1-0.3,0.1-0.6,0.2-0.9c0.3-1.5,0.7-2.9,1.1-4.2c0.1-0.5,0.3-0.9,0.4-1.3l0-0.1c0.9-3.2,2.1-7.2,0.5-9.8  c-0.7-1.1-1.8-2-3.2-2.6c-0.3-0.1-0.6-0.2-0.8-0.3c-0.4,1.1-0.7,2.4-0.9,3.8c-0.2,1.3-0.5,2.7-1,4c-1.1,3.2-2.6,6.3-4,9.1L57.6,46  c-1.7,3.4-3.5,6.9-5.8,10c-1.5,2.1-3.2,3.9-4.8,5.7c-0.6,0.6-1.1,1.2-1.7,1.8c0.2,0.5,0.2,1.1,0.2,1.6v22.7c0,0.5-0.1,1-0.2,1.5  c2.3,0.1,4.7,0.3,7.3,0.6c7.1,0.6,15.2,1.2,20.8,0.8c2.1-0.2,8.7-0.7,10.9-3.5c0.7-1,0.9-2.2,0.9-3.2c0-0.2-0.1-0.5-0.1-0.9  c-0.2-1.5-0.3-2.5,0.9-3.1c3.1-1.7,1.6-7,1.6-7c-0.2-0.7,0-1.5,0.6-2C89.4,70.1,90,69,90,67.8z M32,89.9h7.5c1.1,0,2-0.9,2-2V65.2  c0-1.1-0.9-2-2-2H32c-1.1,0-2,0.9-2,2v22.7C30,89,30.9,89.9,32,89.9z"/><text x="0" y="115" fill="#000000" font-size="5px" font-weight="bold" font-family="'Helvetica Neue', Helvetica, Arial-Unicode, Arial, Sans-serif">Created by IconMark</text><text x="0" y="120" fill="#000000" font-size="5px" font-weight="bold" font-family="'Helvetica Neue', Helvetica, Arial-Unicode, Arial, Sans-serif">from the Noun Project</text></svg>