<svg xmlns="http://www.w3.org/2000/svg" xmlns:xlink="http://www.w3.org/1999/xlink" version="1.1" x="0px" y="0px" viewBox="0 0 100 125" enable-background="new 0 0 100 100" xml:space="preserve"><rect x="49.56" y="46.581" fill="none" width="3.055" height="3.055"/><path fill="none" d="M49.821,34.103c0-1.441,0.577-1.987,1.584-1.987c1.009,0,1.586,0.547,1.586,1.987  c0,5.014-3.459,5.418-3.459,9.827c0,0.519,0.059,0.894,0.174,1.239h2.823c-0.087-0.373-0.115-0.749-0.115-1.124  c0-3.689,3.747-4.494,3.747-9.74c0-3.227-1.586-5.071-4.67-5.071c-3.083,0-4.667,1.844-4.667,5.071v1.99h2.997V34.103z"/><path d="M68.664,58.637c-0.997-0.613-2.261-0.6-3.208,0.088c-3.927,2.853-8.749,4.544-13.963,4.544  c-5.215,0-10.037-1.691-13.964-4.544c-0.947-0.688-2.211-0.701-3.208-0.088c-8.868,5.449-15.052,14.986-16.035,26.059  c-0.148,1.671,1.192,3.108,2.869,3.108h60.674c1.677,0,3.018-1.438,2.869-3.108C83.716,73.623,77.532,64.086,68.664,58.637z"/><path d="M48.552,56.554c11.881,1.949,22.008-8.177,20.059-20.059c-1.18-7.195-6.983-12.998-14.178-14.178  c-11.881-1.949-22.008,8.178-20.059,20.059C35.554,49.57,41.357,55.373,48.552,56.554z M52.615,49.636H49.56v-3.055h3.055V49.636z   M46.824,34.304c0-3.227,1.584-5.071,4.667-5.071c3.083,0,4.67,1.844,4.67,5.071c0,5.247-3.747,6.052-3.747,9.74  c0,0.375,0.028,0.751,0.115,1.124h-2.823c-0.115-0.345-0.174-0.72-0.174-1.239c0-4.409,3.459-4.813,3.459-9.827  c0-1.441-0.577-1.987-1.586-1.987c-1.007,0-1.584,0.547-1.584,1.987v2.192h-2.997V34.304z"/><text x="0" y="115" fill="#000000" font-size="5px" font-weight="bold" font-family="'Helvetica Neue', Helvetica, Arial-Unicode, Arial, Sans-serif">Created by Marie Van den Broeck</text><text x="0" y="120" fill="#000000" font-size="5px" font-weight="bold" font-family="'Helvetica Neue', Helvetica, Arial-Unicode, Arial, Sans-serif">from the Noun Project</text></svg>