<svg xmlns="http://www.w3.org/2000/svg" data-name="Icon Set" viewBox="0 0 24 30" x="0px" y="0px"><title>Summary</title><path d="M20,6V21a1,1,0,0,1-1,1H5a1,1,0,0,1-1-1V6A1,1,0,0,1,5,5H7V6H5V21H19V6H17V5h2A1,1,0,0,1,20,6ZM14,4a2,2,0,0,0-4,0H8V7h8V4Zm4,5H6v1H18Zm0,3H6v1H18Zm0,3H6v1H18Zm0,3H6v1H18Z"/><text x="0" y="39" fill="#000000" font-size="5px" font-weight="bold" font-family="'Helvetica Neue', Helvetica, Arial-Unicode, Arial, Sans-serif">Created by Nathan Gathright</text><text x="0" y="44" fill="#000000" font-size="5px" font-weight="bold" font-family="'Helvetica Neue', Helvetica, Arial-Unicode, Arial, Sans-serif">from the Noun Project</text></svg>