<svg xmlns="http://www.w3.org/2000/svg" xmlns:xlink="http://www.w3.org/1999/xlink" version="1.1" x="0px" y="0px" viewBox="0 0 52 65" style="enable-background:new 0 0 52 52;" xml:space="preserve"><g><circle cx="22.5899963" cy="22.7462616" r="4.5"/><path d="M23.8399963,28.4262543h-2.5c-4,0-7.25,3.25-7.25,7.25c0,0.5499878,0.4499512,1,1,1h15c0.5499878,0,1-0.4500122,1-1   C31.0899963,31.6762543,27.8399963,28.4262543,23.8399963,28.4262543z"/><path d="M43.22995,11.1762552H27.7303772l4.4182129-7.6777954c0.2753906-0.4785156,0.1108398-1.0898438-0.3681641-1.3652344   c-0.4780273-0.2753907-1.0893555-0.1103516-1.3652344,0.3681641l-4.4042969,7.6535645l-4.4042969-7.6535645   c-0.2753906-0.4790039-0.887207-0.6440431-1.3652344-0.3681641c-0.4790039,0.2753906-0.6435547,0.8867188-0.3681641,1.3652344   l4.4182129,7.6777954H8.769989c-2.4700317,0-4.4899902,2.0200195-4.4899902,4.4899902v23.5900269   c0,2.4699707,2.0199585,4.4899902,4.4899902,4.4899902h4.8887329l-1.9227295,4.8874512   c-0.2021484,0.5141602,0.0507813,1.0947266,0.5644531,1.296875c0.1201172,0.0473633,0.2441406,0.0698242,0.3657227,0.0698242   c0.3994141,0,0.7763672-0.2407227,0.9311523-0.6342773l2.2108765-5.619873h20.3834229l2.2108765,5.619873   c0.1547852,0.3935547,0.5317383,0.6342773,0.9311523,0.6342773c0.121582,0,0.2456055-0.0224609,0.3657227-0.0698242   c0.5136719-0.2021484,0.7666016-0.7827148,0.5644531-1.296875l-1.9227295-4.8874512h4.888855   c2.4700317,0,4.4900513-2.0200195,4.4900513-4.4899902V15.6662455   C47.7200012,13.1962748,45.6999817,11.1762552,43.22995,11.1762552z M31.7899475,39.0762787H13.3799744   c-2.4700317,0-4.4799805-2.0100098-4.4799805-4.4900513v-14.249939c0-2.4800415,2.0099487-4.4899893,4.4799805-4.4899893   h18.4099731c2.4800415,0,4.4900513,2.0099478,4.4900513,4.4899893v14.249939   C36.2799988,37.0662689,34.269989,39.0762787,31.7899475,39.0762787z M40.9999695,34.1762543c-1.9299927,0-3.5-1.5700073-3.5-3.5   s1.5700073-3.5,3.5-3.5s3.5,1.5700073,3.5,3.5S42.9299622,34.1762543,40.9999695,34.1762543z M40.9999695,24.1762543   c-1.9299927,0-3.5-1.5700073-3.5-3.5s1.5700073-3.5,3.5-3.5s3.5,1.5700073,3.5,3.5S42.9299622,24.1762543,40.9999695,24.1762543z"/></g><text x="0" y="67" fill="#000000" font-size="5px" font-weight="bold" font-family="'Helvetica Neue', Helvetica, Arial-Unicode, Arial, Sans-serif">Created by Dinosoft Labs</text><text x="0" y="72" fill="#000000" font-size="5px" font-weight="bold" font-family="'Helvetica Neue', Helvetica, Arial-Unicode, Arial, Sans-serif">from the Noun Project</text></svg>