<svg viewBox="0 0 100 100" xmlns="http://www.w3.org/2000/svg">
	<g>
		<path d="M93,5H78.711H67.227H55.742H44.258H32.773H21.289H7C5.896,5,5,5.896,5,7v14.289v11.484v11.484v11.484v11.484v11.484V93   c0,1.104,0.896,2,2,2h14.289h11.484h11.484h11.484h11.484h11.484H93c1.104,0,2-0.896,2-2V78.711V67.227V55.742V44.258V32.773   V21.289V7C95,5.896,94.104,5,93,5z M67.227,76.711H55.742H44.258H32.773h-9.484v-9.484V55.742V44.258V32.773v-9.484h9.484h11.484   h11.484h11.484h9.484v9.484v11.484v11.484v11.484v9.484H67.227z M9,57.742h10.289v7.484H9V57.742z M9,46.258h10.289v7.484H9V46.258   z M9,34.773h10.289v7.484H9V34.773z M19.289,30.773H9v-7.484h10.289V30.773z M9,69.227h10.289v7.484H9V69.227z M91,30.773H80.711   v-7.484H91V30.773z M91,42.258H80.711v-7.484H91V42.258z M91,53.742H80.711v-7.484H91V53.742z M91,65.227H80.711v-7.484H91V65.227z    M80.711,69.227H91v7.484H80.711V69.227z M76.711,19.289h-7.484V9h7.484V19.289z M65.227,19.289h-7.484V9h7.484V19.289z    M53.742,19.289h-7.484V9h7.484V19.289z M42.258,19.289h-7.484V9h7.484V19.289z M30.773,19.289h-7.484V9h7.484V19.289z    M23.289,80.711h7.484V91h-7.484V80.711z M34.773,80.711h7.484V91h-7.484V80.711z M46.258,80.711h7.484V91h-7.484V80.711z    M57.742,80.711h7.484V91h-7.484V80.711z M69.227,80.711h7.484V91h-7.484V80.711z"/>
		<path
				d="M68.301,44.024L55.976,31.699c-0.78-0.781-2.048-0.781-2.828,0l-7.642,7.642c-0.781,0.781-0.781,2.047,0,2.828   l12.326,12.326c0.39,0.391,0.902,0.586,1.414,0.586s1.024-0.195,1.414-0.586l7.642-7.642   C69.083,46.072,69.083,44.805,68.301,44.024z M59.245,50.252l-9.497-9.497l4.813-4.813l9.497,9.497L59.245,50.252z"/>
		<path
				d="M42.169,45.505c-0.78-0.781-2.048-0.781-2.828,0l-7.642,7.642c-0.781,0.781-0.781,2.047,0,2.828l12.326,12.326   c0.39,0.391,0.902,0.586,1.414,0.586s1.024-0.195,1.414-0.586l7.642-7.642c0.781-0.781,0.781-2.047,0-2.828L42.169,45.505z    M45.438,64.059l-9.497-9.497l4.813-4.813l9.497,9.497L45.438,64.059z"/>
	</g>
</svg>