<svg xmlns="http://www.w3.org/2000/svg" viewBox="0 0 64 64" x="0px" y="0px">
	<g>
		<path d="M23.338,41.75l1.324-1.5A10.977,10.977,0,0,1,21,32H19A12.982,12.982,0,0,0,23.338,41.75Z"/>
		<path d="M42.084,27.6A10.909,10.909,0,0,1,43,32h2a12.9,12.9,0,0,0-1.083-5.2,13.281,13.281,0,0,0-6.5-6.706l-.834,1.818A11.255,11.255,0,0,1,42.084,27.6Z"/>
		<path d="M27.489,36.917a6.761,6.761,0,0,0,2.268-.42,16.178,16.178,0,0,1-2.464,3.8A1,1,0,0,0,28,42h8a1,1,0,0,0,.707-1.707,16.208,16.208,0,0,1-2.465-3.8,5.225,5.225,0,0,0,5.432-.757,5.965,5.965,0,0,0-.023-8.5l-7-6a1,1,0,0,0-1.3,0l-7.023,6.02a5.968,5.968,0,0,0,0,8.478A4.579,4.579,0,0,0,27.489,36.917ZM30.053,40A30.107,30.107,0,0,0,32,36.47,30.107,30.107,0,0,0,33.947,40Zm-4.4-11.241L32,23.317l6.326,5.422a3.977,3.977,0,0,1,0,5.522c-1.427,1.3-3.995.512-5.654-1-.014-.014-.314-.19-.345-.2A1,1,0,0,0,32,33h0a1,1,0,0,0-.328.06c-.031.011-.331.187-.346.2-1.658,1.512-4.226,2.3-5.652,1a3.981,3.981,0,0,1-.023-5.5Z"/>
		<rect x="43" y="34" width="2" height="2"/>
		<rect x="19" y="28" width="2" height="2"/>
		<path d="M61,2H3A1,1,0,0,0,2,3V61a1,1,0,0,0,1,1H61a1,1,0,0,0,1-1V3A1,1,0,0,0,61,2ZM60,60H4V4H60Z"/>
		<path d="M12,58a6.006,6.006,0,0,0,6-6,5.365,5.365,0,0,0-.03-.556L23,46.414a16.954,16.954,0,0,0,18,0l5.03,5.03A5.365,5.365,0,0,0,46,52a6,6,0,1,0,6-6,5.365,5.365,0,0,0-.556.03L46.414,41a16.954,16.954,0,0,0,0-18l5.03-5.03A5.365,5.365,0,0,0,52,18a6,6,0,1,0-6-6,5.365,5.365,0,0,0,.03.556L41,17.586a16.954,16.954,0,0,0-18,0l-5.03-5.03A5.365,5.365,0,0,0,18,12a6,6,0,1,0-6,6,5.365,5.365,0,0,0,.556-.03L17.586,23a16.954,16.954,0,0,0,0,18l-5.03,5.03A5.365,5.365,0,0,0,12,46a6,6,0,0,0,0,12Zm0-10a3.958,3.958,0,0,1,.726.075,1,1,0,0,0,.889-.276l5.962-5.962a1,1,0,0,0,.113-1.279,14.958,14.958,0,0,1,0-17.116,1,1,0,0,0-.113-1.279L13.615,16.2a1,1,0,0,0-.889-.276A3.958,3.958,0,0,1,12,16a4,4,0,1,1,4-4,3.958,3.958,0,0,1-.075.726,1,1,0,0,0,.276.889l5.962,5.962a1,1,0,0,0,1.279.113,14.958,14.958,0,0,1,17.116,0,1,1,0,0,0,1.279-.113L47.8,13.615a1,1,0,0,0,.276-.889A3.958,3.958,0,0,1,48,12a4,4,0,1,1,4,4,3.958,3.958,0,0,1-.726-.075,1,1,0,0,0-.889.276l-5.962,5.962a1,1,0,0,0-.113,1.279,14.958,14.958,0,0,1,0,17.116,1,1,0,0,0,.113,1.279L50.385,47.8a1,1,0,0,0,.889.276A3.958,3.958,0,0,1,52,48a4,4,0,1,1-4,4,3.958,3.958,0,0,1,.075-.726,1,1,0,0,0-.276-.889l-5.962-5.962a1,1,0,0,0-1.279-.113,14.958,14.958,0,0,1-17.116,0,1,1,0,0,0-1.279.113L16.2,50.385a1,1,0,0,0-.276.889A3.958,3.958,0,0,1,16,52a4,4,0,1,1-4-4Z"/>
		<path d="M13,22H6V42h7ZM11,40H8V36h3Zm0-6H8V30h3Zm0-6H8V24h3Z"/>
		<path d="M51,42h7V22H51Zm2-18h3v4H53Zm0,6h3v4H53Zm0,6h3v4H53Z"/>
		<path d="M43,6H21v7H43Zm-2,5H23V8H41Z"/>
		<path d="M21,58H43V51H21Zm2-5H41v3H23Z"/>
		<rect x="6" y="18" width="2" height="2"/>
		<rect x="56" y="44" width="2" height="2"/>
	</g>
</svg>