<svg fill="#000000" height='100px' version="1.1" viewBox="0 0 333.33269 333.33269" width='100px'
     x="0px" xmlns="http://www.w3.org/2000/svg" y="0px">
	<path d="m 140.70996,16.666917 c 0,0 94.09192,0 94.09192,0 23.93667,-0.08111 41.32745,17.309671 41.36801,41.246332 0,0 0,217.384801 0,217.384801 -0.0406,23.93667 -17.43134,41.32745 -41.36801,41.36801 0,0 -136.27107,0 -136.27107,0 -23.936662,-0.0406 -41.327446,-17.43134 -41.368003,-41.36801 0,0 0,-141.13789 0,-141.13789 0,0 0,-77.869186 0,-77.869186 0.251452,-20.967898 14.819479,-35.681928 34.878905,-39.624057 0,0 48.668248,0 48.668248,0 z M 73.385553,74.135995 c 0,0 0,184.939315 0,184.939315 0.04056,23.93666 17.431341,41.32744 41.368007,41.368 0,0 103.82558,0 103.82558,0 23.93666,-0.0406 41.32744,-17.43134 41.368,-41.368 0,0 0,-184.939315 0,-184.939315 -0.0406,-23.936662 -17.43134,-41.327444 -41.368,-41.286887 0,0 -71.38009,0 -71.38009,0 0,0 -38.12345,0 -38.12345,0 -21.657371,3.739343 -35.657601,19.110393 -35.690047,41.286887 z"
	      fill="#000000" fill-opacity="1" stroke="none" style=""/>
</svg>