<svg height='100px' width='100px' fill="#000000" xmlns="http://www.w3.org/2000/svg" viewBox="0 0 333.33269 333.33266"
     version="1.1" x="0px" y="0px">
	<path d="m 98.484653,316.66606 c 0,0 136.363387,0 163.636067,0 16.36361,0 27.27268,-10.90907 27.27268,-27.27267 0,0 0,-218.181425 0,-218.181425 0,-16.363606 0,-16.363606 -5.45454,-21.818139 0,0 -27.27268,-27.272678 -27.27268,-27.272678 -5.45453,-5.454535 -5.45453,-5.454535 -25.09086,-5.454535 0,0 -133.090667,0 -160.363345,0 -16.363606,0 -27.272676,10.909071 -27.272676,27.272677 0,0 0,190.90874 0,218.18142 0,16.36361 0,16.36361 5.454535,21.81814 0,0 27.272677,27.27268 27.272677,27.27268 5.454535,5.45453 5.454535,5.45453 21.818142,5.45453 z M 253.09252,54.848359 c 10.90907,0 16.36361,5.454535 16.36361,16.363606 0,0 0,205.203385 0,210.657925 0,10.90907 -5.45454,16.36361 -16.36361,16.36361 0,0 -149.15333,0 -154.607867,0 -10.909071,0 -16.363607,-5.45454 -16.363607,-16.36361 0,0 0,-205.20339 0,-210.657925 0,-10.909071 5.454536,-16.363606 16.363607,-16.363606 5.454537,0 149.153337,0 154.607867,0 z"
	      style="" fill="#000000" fill-opacity="1" stroke="none"/>
</svg>