<svg xmlns="http://www.w3.org/2000/svg" viewBox="0 0 1000 1000" version="1.1" x="0px" y="0px">
	<defs>
		<radialGradient id="gradbg">
			<stop offset="0%" stop-color="#A9F" />
			<stop offset="100%" stop-color="#77C" />
		</radialGradient>
	</defs>
	<g>
		<rect fill="url(#gradbg)" x="20%" y="8%" width="60%" rx="45" height="84%"/>
		<path fill="#111"
		      d=" M 252.42 66.57 C 254.60 66.19 256.81 66.05 259.03 65.99 C 419.68 66.01 580.34 66.01 740.99 65.99 C 766.97 67.40 791.64 83.27 803.64 106.37 C 808.68 115.86 811.40 126.42 812.28 137.09 C 812.11 189.40 812.24 241.72 812.20 294.04 C 812.04 393.69 812.66 493.34 812.20 592.99 C 812.20 663.33 812.20 733.67 812.20 804.01 C 812.28 823.01 812.02 842.02 812.35 861.02 C 811.48 880.88 802.94 900.64 787.91 913.87 C 775.58 925.61 758.94 932.59 742.05 933.97 C 583.70 934.04 425.34 933.96 266.99 934.01 C 237.99 935.76 209.01 918.78 195.98 892.89 C 189.91 880.95 186.98 867.38 187.79 854.01 C 187.76 748.02 187.94 642.03 187.64 536.04 C 187.54 463.67 187.91 391.30 187.80 318.93 C 187.80 261.29 187.81 203.65 187.79 146.01 C 186.85 130.39 190.98 114.53 199.29 101.27 C 210.93 82.73 230.86 70.00 252.42 66.57 M 254.49 96.85 C 246.26 98.55 238.38 102.36 232.33 108.25 C 222.50 116.82 217.30 130.05 217.80 143.00 C 217.70 208.67 217.78 274.35 217.76 340.03 C 217.67 404.02 218.08 468.01 217.94 532.01 C 217.65 640.66 217.72 749.32 217.82 857.97 C 217.08 876.40 229.28 894.10 246.35 900.70 C 253.79 903.95 262.04 904.08 270.02 904.06 C 420.68 903.99 571.34 904.01 721.99 904.04 C 731.33 903.86 740.96 904.80 750.02 902.00 C 763.11 898.01 774.31 887.89 779.18 875.05 C 783.11 865.89 782.05 855.74 782.24 846.05 C 782.24 778.02 782.25 710.00 782.24 641.98 C 782.32 589.32 781.92 536.67 782.06 484.02 C 782.33 372.68 782.23 261.34 782.25 150.00 C 782.13 143.31 782.54 136.50 780.84 129.96 C 776.57 112.89 761.42 99.24 744.05 96.63 C 736.40 95.62 728.67 96.04 720.98 95.96 C 570.67 95.99 420.37 96.01 270.06 95.94 C 264.86 95.92 259.63 96.02 254.49 96.85 Z"/>
		<path fill="#000"
		      d=" M 271.44 138.70 C 280.29 136.41 289.82 143.84 289.73 152.98 C 290.83 161.14 284.41 169.39 276.12 169.88 C 267.64 170.92 259.55 163.46 259.76 154.95 C 258.95 147.59 264.15 140.19 271.44 138.70 Z"/>
		<path fill="#336"
		      d=" M 337.23 140.27 C 371.81 140.02 406.41 140.23 441.00 140.16 C 514.00 139.81 587.00 140.35 660.00 140.14 C 666.16 139.74 672.45 143.35 674.78 149.15 C 676.83 154.92 677.60 161.04 678.05 167.12 C 680.28 184.00 694.35 198.21 710.95 201.43 C 715.96 202.78 721.64 201.79 726.17 204.75 C 731.67 208.11 733.99 214.86 734.43 220.99 C 734.46 253.32 734.43 285.65 734.44 317.98 C 734.54 340.65 734.19 363.32 734.69 385.98 C 734.62 463.99 734.78 542.00 734.61 620.01 C 734.20 673.00 734.57 726.01 734.43 779.01 C 733.99 785.33 731.49 792.33 725.64 795.56 C 721.37 798.07 716.22 797.28 711.58 798.43 C 698.17 800.91 686.26 810.31 680.88 822.85 C 676.45 832.07 678.65 842.91 674.18 852.13 C 671.65 856.83 666.43 859.91 661.09 859.83 C 623.41 859.85 585.72 859.84 548.04 859.84 C 502.68 860.23 457.32 859.76 411.97 859.84 C 387.62 859.83 363.27 859.85 338.93 859.83 C 332.82 859.94 326.85 855.87 324.92 850.05 C 323.42 845.19 322.46 840.16 322.16 835.09 C 321.21 821.18 312.01 808.52 299.70 802.30 C 293.28 798.80 285.93 797.87 278.78 797.16 C 270.33 795.79 265.89 786.85 265.57 779.02 C 265.54 745.69 265.57 712.36 265.56 679.03 C 265.45 657.70 265.82 636.35 265.31 615.02 C 265.33 558.67 265.31 502.32 265.32 445.97 C 265.43 420.98 265.06 395.98 265.57 371.00 C 265.55 321.01 265.55 271.03 265.57 221.04 C 266.00 214.90 268.30 208.13 273.82 204.76 C 278.34 201.79 284.01 202.78 289.03 201.44 C 302.19 198.83 313.81 189.50 319.11 177.16 C 323.55 167.94 321.34 157.08 325.82 147.86 C 328.09 143.69 332.48 140.72 337.23 140.27 M 352.20 170.09 C 350.32 181.06 346.52 191.84 340.07 200.98 C 329.79 216.20 313.48 227.13 295.53 231.01 C 295.50 277.35 295.54 323.69 295.51 370.03 C 296.02 397.33 295.65 424.65 295.76 451.96 C 295.70 508.32 295.90 564.69 295.66 621.04 C 295.33 670.36 295.60 719.68 295.53 768.99 C 309.48 772.05 322.51 779.24 332.39 789.59 C 343.11 800.47 349.79 814.90 352.20 829.92 C 358.86 829.85 365.52 829.88 372.18 829.89 C 370.70 821.67 371.41 813.26 371.99 804.99 C 375.98 775.19 399.10 749.20 428.08 741.37 C 434.23 739.71 440.59 738.59 446.97 738.64 C 455.86 738.88 462.94 748.35 460.57 756.95 C 459.43 760.72 458.13 764.56 455.81 767.80 C 445.92 780.58 442.93 798.39 448.61 813.59 C 450.20 819.53 454.64 824.09 456.70 829.83 C 485.53 829.82 514.36 829.63 543.19 829.92 C 544.34 826.98 545.94 824.27 547.65 821.65 C 557.04 806.03 556.29 785.09 545.84 770.16 C 542.43 765.79 540.11 760.58 539.10 755.14 C 537.94 746.64 545.42 738.27 554.04 738.61 C 573.51 739.26 592.71 747.64 606.24 761.70 C 617.53 772.70 624.89 787.44 627.76 802.87 C 628.60 811.83 629.35 820.96 627.82 829.89 C 634.48 829.89 641.14 829.85 647.80 829.92 C 649.69 818.93 653.49 808.13 659.95 798.98 C 670.24 783.77 686.54 772.87 704.47 768.99 C 704.50 722.65 704.46 676.31 704.49 629.97 C 703.97 601.33 704.35 572.67 704.24 544.02 C 704.30 489.00 704.10 433.97 704.34 378.96 C 704.67 329.64 704.40 280.32 704.47 231.01 C 690.51 227.95 677.47 220.75 667.60 210.40 C 656.89 199.52 650.20 185.10 647.80 170.09 C 641.14 170.15 634.48 170.11 627.82 170.11 C 629.35 179.04 628.59 188.17 627.76 197.14 C 625.64 208.34 621.27 219.22 614.57 228.49 C 602.43 245.74 583.10 257.78 562.16 260.67 C 557.62 261.21 552.80 262.12 548.41 260.34 C 541.77 257.78 537.59 250.03 539.42 243.09 C 540.61 239.06 542.05 234.99 544.61 231.60 C 554.22 218.88 556.96 201.31 551.37 186.35 C 549.76 180.43 545.35 175.88 543.29 170.17 C 514.45 170.22 485.60 170.29 456.76 170.13 C 455.64 173.06 454.04 175.75 452.35 178.37 C 442.95 193.98 443.72 214.93 454.17 229.86 C 457.57 234.23 459.91 239.44 460.91 244.89 C 462.04 253.38 454.57 261.72 445.97 261.39 C 426.96 260.75 408.18 252.78 394.74 239.27 C 382.93 228.15 375.18 213.02 372.24 197.13 C 371.41 188.17 370.65 179.04 372.18 170.11 C 365.52 170.11 358.86 170.15 352.20 170.09 M 403.12 170.12 C 400.65 177.21 401.11 184.80 401.89 192.14 C 403.60 202.97 409.76 212.48 417.59 219.94 C 413.95 203.28 415.73 185.62 422.79 170.09 C 416.23 170.15 409.67 170.10 403.12 170.12 M 577.21 170.09 C 584.27 185.62 586.07 203.29 582.40 219.95 C 590.22 212.49 596.39 202.99 598.11 192.16 C 598.88 184.82 599.36 177.22 596.88 170.12 C 590.32 170.10 583.77 170.15 577.21 170.09 M 417.57 780.07 C 409.77 787.54 403.59 797.03 401.89 807.86 C 401.12 815.20 400.63 822.78 403.12 829.88 C 409.67 829.89 416.23 829.85 422.79 829.91 C 415.71 814.38 413.97 796.73 417.57 780.07 M 582.41 780.06 C 586.06 796.71 584.27 814.38 577.21 829.91 C 583.77 829.85 590.32 829.89 596.88 829.88 C 599.37 822.79 598.87 815.20 598.11 807.86 C 596.40 797.02 590.23 787.52 582.41 780.06 Z"/>
		<path fill="#000"
		      d=" M 714.40 140.53 C 722.75 138.08 732.16 144.35 733.08 152.99 C 734.50 161.34 727.54 169.80 719.08 170.00 C 711.19 170.69 703.63 164.06 703.28 156.15 C 702.59 149.14 707.59 142.22 714.40 140.53 Z"/>
		<path fill="#000"
		      d=" M 493.48 197.70 C 501.86 195.05 511.48 201.30 512.44 210.03 C 513.84 218.18 507.28 226.50 499.04 227.06 C 491.21 228.04 483.45 221.79 482.71 213.95 C 481.68 206.83 486.56 199.55 493.48 197.70 Z"/>
		<path fill="#000"
		      d=" M 420.51 341.70 C 430.36 338.78 441.49 346.62 441.78 356.94 C 442.79 366.38 434.43 375.41 424.94 375.05 C 416.18 375.42 408.11 367.80 407.96 359.04 C 407.31 351.22 412.92 343.59 420.51 341.70 Z"/>
		<path fill="#000"
		      d=" M 474.72 364.78 C 487.64 353.69 504.12 346.98 521.07 345.62 C 529.37 345.10 537.66 345.89 545.94 346.50 C 555.51 348.02 561.98 358.87 558.83 368.03 C 556.70 373.72 553.79 379.16 552.39 385.10 C 551.60 394.17 551.51 403.67 555.21 412.18 C 564.10 407.69 574.22 406.31 584.07 406.54 C 591.09 407.34 598.21 407.49 605.13 408.99 C 615.91 412.56 626.22 417.75 635.00 425.01 C 644.20 433.10 651.86 443.02 656.72 454.32 C 658.42 458.86 661.93 462.88 661.79 467.97 C 662.36 475.94 656.36 483.70 648.51 485.18 C 642.19 486.14 635.58 486.24 629.58 488.62 C 624.24 491.93 618.14 494.19 613.66 498.74 C 612.02 500.37 610.61 502.22 609.17 504.03 C 616.41 509.38 622.48 516.25 627.14 523.92 C 630.09 530.63 633.40 537.20 635.95 544.09 C 642.65 568.21 637.33 595.26 621.83 614.97 C 619.47 618.21 617.69 622.11 614.05 624.17 C 607.27 628.68 597.27 627.33 592.07 621.01 C 589.12 617.24 586.47 613.23 583.28 609.66 C 580.31 606.09 575.85 604.42 572.04 601.95 C 567.35 598.89 561.89 597.28 556.40 596.42 C 555.70 601.09 555.10 605.86 553.28 610.26 C 551.15 615.59 549.46 621.26 545.76 625.77 C 541.89 630.33 539.07 635.70 534.92 640.03 C 521.51 653.06 503.82 662.09 485.03 663.47 C 479.54 663.63 474.00 664.13 468.54 663.25 C 463.79 662.46 458.61 663.42 454.31 660.82 C 447.01 657.12 443.46 647.67 446.47 640.07 C 448.70 634.79 451.25 629.58 452.61 623.99 C 453.33 615.00 453.73 605.54 449.80 597.16 C 438.85 601.55 426.71 604.19 414.95 601.92 C 410.33 601.28 405.59 601.58 401.06 600.33 C 386.62 596.07 373.04 588.30 362.87 577.10 C 354.06 568.46 349.20 556.93 344.02 545.97 C 341.53 538.83 344.52 530.21 351.01 526.28 C 354.86 523.59 359.69 523.87 364.11 523.09 C 368.62 522.19 373.46 522.03 377.37 519.33 C 384.28 515.73 391.44 511.96 395.87 505.27 C 389.78 500.73 384.79 494.95 380.16 488.98 C 376.64 484.31 375.19 478.53 372.54 473.39 C 369.89 468.08 367.84 462.43 367.35 456.47 C 363.67 434.93 369.44 412.03 382.79 394.75 C 385.35 391.31 387.03 386.98 390.98 384.81 C 397.76 380.32 407.74 381.67 412.92 387.99 C 416.73 393.12 420.32 398.63 425.42 402.59 C 430.62 405.41 435.28 409.38 441.07 410.96 C 443.53 411.69 446.06 412.09 448.58 412.56 C 449.50 405.24 451.89 398.22 454.67 391.43 C 455.84 388.53 457.39 385.78 459.34 383.34 C 464.46 377.16 468.10 369.61 474.72 364.78 M 490.48 398.44 C 488.29 401.96 485.36 405.09 484.15 409.14 C 481.23 416.82 482.33 425.28 480.44 433.16 C 477.98 441.28 469.35 444.55 461.87 446.34 C 446.10 448.07 429.94 444.50 415.99 437.11 C 411.90 433.81 407.29 431.30 402.79 428.65 C 399.44 437.38 399.38 447.26 401.96 456.20 C 405.22 462.98 407.62 470.58 413.45 475.70 C 418.09 479.74 423.54 482.75 428.23 486.74 C 431.87 490.06 433.91 495.09 433.48 500.02 C 433.13 503.63 433.26 507.42 431.90 510.85 C 426.73 521.39 419.83 531.28 410.63 538.71 C 406.60 541.67 402.81 545.17 398.05 546.93 C 394.07 548.52 390.53 550.97 386.76 552.98 C 390.32 556.88 394.31 560.44 398.99 562.94 C 403.64 565.36 408.52 567.91 413.90 567.89 C 419.61 568.06 425.45 569.39 431.08 567.77 C 436.94 566.23 442.24 563.19 447.74 560.74 C 452.43 558.53 458.21 558.62 462.77 561.12 C 466.19 563.27 469.54 565.69 472.31 568.67 C 481.69 581.43 486.97 597.15 487.21 613.00 C 486.84 618.33 486.39 623.66 486.45 629.02 C 498.12 626.87 509.43 620.00 515.40 609.55 C 518.61 604.86 521.89 599.88 522.44 594.07 C 523.42 587.98 523.08 581.66 524.70 575.70 C 527.35 567.85 535.81 564.63 543.11 562.66 C 552.49 562.17 562.08 562.25 571.18 564.90 C 577.03 566.79 582.88 568.82 588.41 571.52 C 592.89 574.94 597.79 577.75 602.49 580.85 C 605.23 571.31 606.23 560.79 602.43 551.39 C 600.45 547.18 598.48 542.94 596.21 538.88 C 591.21 530.72 581.45 527.63 575.15 520.80 C 570.09 514.95 571.32 506.68 572.82 499.74 C 576.16 490.37 582.56 482.51 589.10 475.17 C 593.88 470.91 598.70 466.51 604.26 463.28 C 609.13 461.42 613.52 458.61 618.22 456.38 C 612.73 449.18 604.45 444.59 595.96 441.86 C 589.04 440.78 581.91 440.01 574.95 441.04 C 568.74 442.59 563.14 445.83 557.37 448.47 C 551.88 451.08 544.96 450.51 540.11 446.80 C 536.94 444.37 533.40 442.16 531.28 438.67 C 525.85 429.88 521.10 420.40 519.41 410.11 C 518.77 405.10 517.52 400.11 517.84 395.03 C 518.31 390.09 518.53 385.13 518.58 380.17 C 507.43 382.36 496.23 388.29 490.48 398.44 Z"/>
		<path fill="#000"
		      d=" M 586.48 347.64 C 594.41 345.55 603.40 349.98 606.34 357.68 C 609.83 365.79 605.82 376.20 597.61 379.60 C 589.35 383.55 578.41 379.43 575.04 370.87 C 570.76 361.71 576.58 349.79 586.48 347.64 Z"/>
		<path fill="#000"
		      d=" M 330.42 482.66 C 337.88 479.50 347.35 482.49 351.40 489.57 C 356.21 497.14 353.63 508.28 345.84 512.81 C 337.88 518.00 326.00 514.86 321.83 506.28 C 317.15 497.85 321.34 486.05 330.42 482.66 Z"/>
		<path fill="#000"
		      d=" M 662.40 494.64 C 669.43 492.05 678.01 494.72 682.15 501.02 C 687.41 508.38 685.35 519.78 677.68 524.67 C 669.83 530.29 657.57 527.43 653.22 518.76 C 648.16 510.09 652.79 497.69 662.40 494.64 Z"/>
		<path fill="#000"
		      d=" M 410.41 628.60 C 420.24 625.96 431.10 633.86 431.28 644.10 C 432.23 653.63 423.62 662.66 414.04 662.05 C 404.67 662.24 396.53 653.35 397.47 644.04 C 397.73 636.75 403.34 630.20 410.41 628.60 Z"/>
		<path fill="#000"
		      d=" M 576.44 634.54 C 583.13 633.03 590.58 635.92 594.29 641.74 C 599.63 649.44 597.01 661.23 588.75 665.76 C 580.56 670.86 568.53 667.23 564.73 658.29 C 560.02 648.95 566.13 636.46 576.44 634.54 Z"/>
		<path fill="#000"
		      d=" M 493.32 773.47 C 501.86 770.66 511.74 777.16 512.48 786.12 C 513.73 794.50 506.57 802.83 498.10 802.84 C 490.32 803.33 483.02 796.76 482.64 789.00 C 481.97 782.13 486.72 775.34 493.32 773.47 Z"/>
		<path fill="#000"
		      d=" M 279.44 836.63 C 287.99 834.30 297.43 841.09 297.88 849.94 C 298.83 858.00 292.08 865.86 283.98 866.18 C 276.31 866.92 268.86 860.77 268.08 853.12 C 266.96 845.77 272.20 838.24 279.44 836.63 Z"/>
		<path fill="#000"
		      d=" M 717.49 838.69 C 725.73 836.32 734.99 842.44 736.05 850.94 C 737.61 859.36 730.61 867.99 722.06 868.19 C 714.09 868.87 706.50 862.10 706.27 854.11 C 705.68 847.14 710.72 840.33 717.49 838.69 Z"/>
	</g>
</svg>